<?xml version="1.0" encoding="UTF-8"?>
<svg version="1.1" xmlns="http://www.w3.org/2000/svg" width="1024" height="1024">
<path d="M0 0 C337.92 0 675.84 0 1024 0 C1024 337.92 1024 675.84 1024 1024 C686.08 1024 348.16 1024 0 1024 C0 686.08 0 348.16 0 0 Z " fill="#FBFBFB" transform="translate(0,0)"/>
<path d="M0 0 C58.08 0 116.16 0 176 0 C176 9.24 176 18.48 176 28 C212.3 28 248.6 28 286 28 C286 36.25 286 44.5 286 53 C302.17 53 318.34 53 335 53 C335 61.58 335 70.16 335 79 C343.25 79 351.5 79 360 79 C360 87.58 360 96.16 360 105 C367.92 105 375.84 105 384 105 C384 121.17 384 137.34 384 154 C391.26 154 398.52 154 406 154 C406 192.94 406 231.88 406 272 C398.74 272 391.48 272 384 272 C384 288.5 384 305 384 322 C376.08 322 368.16 322 360 322 C360 330.25 360 338.5 360 347 C351 348.125 351 348.125 347.28125 348.09765625 C346.57033203 348.09515869 345.85941406 348.09266113 345.12695312 348.09008789 C344.26005859 348.08098389 343.39316406 348.07187988 342.5 348.0625 C339.695 348.041875 336.89 348.02125 334 348 C334 355.59 334 363.18 334 371 C325.75 371 317.5 371 309 371 C309 378.92 309 386.84 309 395 C301.41 395 293.82 395 286 395 C286 403.25 286 411.5 286 420 C278.74 420 271.48 420 264 420 C264.03921206 424.95037589 264.03921206 424.95037589 264.09008789 429.90063477 C264.09383423 430.84894165 264.09383423 430.84894165 264.09765625 431.81640625 C264.10289307 432.45006104 264.10812988 433.08371582 264.11352539 433.73657227 C263.95773291 436.84270581 263.4398258 439.92121937 263 443 C256.07 443 249.14 443 242 443 C242 451.25 242 459.5 242 468 C235.4 468 228.8 468 222 468 C222 491.1 222 514.2 222 538 C258.63 538 295.26 538 333 538 C333 546.58 333 555.16 333 564 C350.16 564 367.32 564 385 564 C385 571.92 385 579.84 385 588 C391.07279958 587.96056498 391.07279958 587.96056498 397.14550781 587.90991211 C397.90702148 587.90741455 398.66853516 587.90491699 399.453125 587.90234375 C400.22817383 587.89710693 401.00322266 587.89187012 401.80175781 587.88647461 C404 588 404 588 408 589 C408 596.26 408 603.52 408 611 C410.97 610.9690625 410.97 610.9690625 414 610.9375 C419.20419947 610.88328959 423.74120999 611.34265125 429 612 C429 644.34 429 676.68 429 710 C422.07 710 415.14 710 408 710 C408 717.92 408 725.84 408 734 C400.08 734 392.16 734 384 734 C384 741.59 384 749.18 384 757 C359.58 757 335.16 757 310 757 C310 765.58 310 774.16 310 783 C145.66 782.505 145.66 782.505 -22 782 C-22 789.92 -22 797.84 -22 806 C-36.85 806 -51.7 806 -67 806 C-67 789.83 -67 773.66 -67 757 C-59.74 757 -52.48 757 -45 757 C-45 749.08 -45 741.16 -45 733 C-98.46 733 -151.92 733 -207 733 C-207 725.41 -207 717.82 -207 710 C-215.91 710 -224.82 710 -234 710 C-234 701.75 -234 693.5 -234 685 C-241.59 685.33 -249.18 685.66 -257 686 C-257 653.66 -257 621.32 -257 588 C-249.08 588 -241.16 588 -233 588 C-233 579.42 -233 570.84 -233 562 C-224.42 562.33 -215.84 562.66 -207 563 C-207 554.75 -207 546.5 -207 538 C-191.16 538 -175.32 538 -159 538 C-159 529.75 -159 521.5 -159 513 C-121.71 513 -84.42 513 -46 513 C-46 497.82 -46 482.64 -46 467 C-52.93 467 -59.86 467 -67 467 C-67 459.08 -67 451.16 -67 443 C-74.92 443 -82.84 443 -91 443 C-91 435.08 -91 427.16 -91 419 C-97.6 419 -104.2 419 -111 419 C-111 411.08 -111 403.16 -111 395 C-119.25 395 -127.5 395 -136 395 C-136 388.4 -136 381.8 -136 375 C-143.59 375 -151.18 375 -159 375 C-159 366.75 -159 358.5 -159 350 C-167.25 350 -175.5 350 -184 350 C-184 341.42 -184 332.84 -184 324 C-192.58 324 -201.16 324 -210 324 C-210 307.17 -210 290.34 -210 273 C-217.59 273 -225.18 273 -233 273 C-233 233.4 -233 193.8 -233 153 C-225.74 153 -218.48 153 -211 153 C-211 137.16 -211 121.32 -211 105 C-202.09 105 -193.18 105 -184 105 C-184 96.42 -184 87.84 -184 79 C-175.75 79 -167.5 79 -159 79 C-159 70.42 -159 61.84 -159 53 C-142.83 53 -126.66 53 -110 53 C-110 44.75 -110 36.5 -110 28 C-73.7 28 -37.4 28 0 28 C0 18.76 0 9.52 0 0 Z " fill="#5F104B" transform="translate(428,117)"/>
<path d="M0 0 C93.72 0 187.44 0 284 0 C284 8.25 284 16.5 284 25 C300.17 25 316.34 25 333 25 C333 33.58 333 42.16 333 51 C341.25 51 349.5 51 358 51 C358 59.58 358 68.16 358 77 C365.92 77 373.84 77 382 77 C382 93.17 382 109.34 382 126 C389.26 126 396.52 126 404 126 C404 164.94 404 203.88 404 244 C396.74 244 389.48 244 382 244 C382 260.5 382 277 382 294 C374.08 294 366.16 294 358 294 C358 302.25 358 310.5 358 319 C349 320.125 349 320.125 345.28125 320.09765625 C344.57033203 320.09515869 343.85941406 320.09266113 343.12695312 320.09008789 C341.82661133 320.07643188 341.82661133 320.07643188 340.5 320.0625 C337.695 320.041875 334.89 320.02125 332 320 C332 327.59 332 335.18 332 343 C323.75 343 315.5 343 307 343 C307 350.92 307 358.84 307 367 C299.41 367 291.82 367 284 367 C284 375.25 284 383.5 284 392 C276.74 392 269.48 392 262 392 C262 397.28 262 402.56 262 408 C261.67 408 261.34 408 261 408 C261 402.39 261 396.78 261 391 C254.07 391 247.14 391 240 391 C239.67 383.41 239.34 375.82 239 368 C231.74 368 224.48 368 217 368 C217 384.17 217 400.34 217 417 C210.4 417 203.8 417 197 417 C197.0721875 418.63324219 197.144375 420.26648438 197.21875 421.94921875 C197.81327784 435.98261921 198.09891593 449.95393771 198 464 C190.74 464 183.48 464 176 464 C176 440.24 176 416.48 176 392 C192.875 392 192.875 392 200 393 C199.99777939 392.24642715 199.99555878 391.49285431 199.99327087 390.71644592 C199.96642084 381.16513956 199.94824437 371.61383766 199.9375 362.0625 C199.93621597 360.92902508 199.93621597 360.92902508 199.93490601 359.77265167 C199.91292466 337.83461109 199.98474323 315.91982571 201 294 C203.04159095 293.9727384 205.08328963 293.95348655 207.125 293.9375 C208.26195312 293.92589844 209.39890625 293.91429687 210.5703125 293.90234375 C213.81727013 293.99479699 216.80803475 294.4340626 220 295 C219.99828167 294.05159209 219.99828167 294.05159209 219.99652863 293.08402443 C219.96882486 275.16679097 220.0665848 257.25245618 220.21875 239.3359375 C220.24138202 236.59298878 220.26369171 233.85003746 220.28601074 231.10708618 C220.33828529 224.70473795 220.39162509 218.30239909 220.4453826 211.90006316 C220.50669678 204.59126284 220.56677013 197.28245247 220.62675762 189.97364116 C220.74982581 174.98241608 220.87455617 159.99120542 221 145 C228.26 145 235.52 145 243 145 C242.835 142.545625 242.67 140.09125 242.5 137.5625 C241.93942827 125.72042229 242 113.85533825 242 102 C263.78 102 285.56 102 308 102 C308 109.59 308 117.18 308 125 C315.92 125 323.84 125 332 125 C331.835 122.916875 331.67 120.83375 331.5 118.6875 C331.00142315 112.39296729 331 106.37490638 331 100 C323.41 100 315.82 100 308 100 C308 92.08 308 84.16 308 76 C304.03033203 76.24556641 304.03033203 76.24556641 299.98046875 76.49609375 C288.4243591 77.14285345 276.88275176 77.11194153 265.3125 77.0625 C263.23112089 77.05746742 261.14974057 77.05290766 259.06835938 77.04882812 C254.04551766 77.03884236 249.0228482 77.01924463 244 77 C244 69.08 244 61.16 244 53 C240.37 53 236.74 53 233 53 C230.60211109 52.86611986 228.2052868 52.70583112 225.8125 52.5 C224.70519531 52.4071875 223.59789062 52.314375 222.45703125 52.21875 C221.64621094 52.1465625 220.83539062 52.074375 220 52 C220.33 52.99 220.66 53.98 221 55 C221.09689109 57.09979451 221.13076002 59.20265976 221.1328125 61.3046875 C221.13413177 61.95621796 221.13545105 62.60774841 221.1368103 63.27902222 C221.13876039 65.47772628 221.13228005 67.67630823 221.125 69.875 C221.12411377 70.63445923 221.12322754 71.39391846 221.12231445 72.1763916 C221.09021602 96.12058586 220.51347505 120.06232133 220 144 C212.79676063 145.37204559 206.68252177 145 199 145 C199 154.24 199 163.48 199 173 C191.08 173 183.16 173 175 173 C175 181.25 175 189.5 175 198 C168.07 198 161.14 198 154 198 C154 206.25 154 214.5 154 223 C88.165 222.01 88.165 222.01 21 221 C21 213.74 21 206.48 21 199 C13.08 199 5.16 199 -3 199 C-3 191.08 -3 183.16 -3 175 C-10.26 175 -17.52 175 -25 175 C-25 165.1 -25 155.2 -25 145 C-31.93 145 -38.86 145 -46 145 C-46.84419823 113.65914055 -47.12063524 82.35175928 -47 51 C-39.41 51 -31.82 51 -24 51 C-24 42.42 -24 33.84 -24 25 C-16.08 25 -8.16 25 0 25 C0 16.75 0 8.5 0 0 Z " fill="#E92E8C" transform="translate(430,145)"/>
<path d="M0 0 C7.26 0 14.52 0 22 0 C22 8.25 22 16.5 22 25 C25.42375 24.98839844 28.8475 24.97679687 32.375 24.96484375 C35.74446521 24.95701268 39.11392934 24.95095904 42.48339844 24.94506836 C44.79915837 24.94008443 47.11491524 24.93329487 49.43066406 24.92456055 C62.33947876 24.87714269 75.12680598 24.99822571 88 26 C88 33.92 88 41.84 88 50 C87.34 50 86.68 50 86 50 C86 58.25 86 66.5 86 75 C86.33 68.4 86.66 61.8 87 55 C87.33 55 87.66 55 88 55 C88 68.53 88 82.06 88 96 C93.61 96 99.22 96 105 96 C106.65 96.33 108.3 96.66 110 97 C110.33 82.81 110.66 68.62 111 54 C111.66 54 112.32 54 113 54 C113.02557714 61.43407447 113.04296122 68.86813738 113.05493164 76.30224609 C113.0599276 78.82568791 113.06672663 81.34912688 113.07543945 83.87255859 C113.08771436 87.52181709 113.09327583 91.17103696 113.09765625 94.8203125 C113.10281754 95.92923859 113.10797882 97.03816467 113.11329651 98.18069458 C113.11385808 106.2109222 112.57585495 113.93803076 112 122 C125.53 122 139.06 122 153 122 C153 113.42 153 104.84 153 96 C146.07 96 139.14 96 132 96 C132.33 72.57 132.66 49.14 133 25 C142.80404843 25 152.58193548 25.00098495 162.37890625 25.21875 C163.44245834 25.24094604 164.50601044 25.26314209 165.60179138 25.28601074 C168.92206532 25.35567765 172.24228063 25.42778444 175.5625 25.5 C177.84569967 25.54834057 180.12890278 25.59651875 182.41210938 25.64453125 C187.94145641 25.76085411 193.47071723 25.88049408 199 26 C199 17.42 199 8.84 199 0 C206.59 0 214.18 0 222 0 C221.67 24.09 221.34 48.18 221 73 C213.74 73 206.48 73 199 73 C199 105.34 199 137.68 199 171 C191.41 171 183.82 171 176 171 C176 202.35 176 233.7 176 266 C163 266 163 266 155 265 C154.67 273.25 154.34 281.5 154 290 C153.34 290 152.68 290 152 290 C152 298.58 152 307.16 152 316 C152.66 316 153.32 316 154 316 C154 323.92 154 331.84 154 340 C152.205625 339.855625 150.41125 339.71125 148.5625 339.5625 C147.55316406 339.48128906 146.54382813 339.40007812 145.50390625 339.31640625 C141.32988619 338.93948805 137.16537026 338.46281892 133 338 C133 347.24 133 356.48 133 366 C126.4 366 119.8 366 113 366 C113 373.59 113 381.18 113 389 C72.05912708 389.08613842 31.1227988 388.84010477 -9.81682122 388.55461788 C-18.69801141 388.49275755 -27.57921509 388.43294355 -36.46042001 388.37324238 C-54.6402951 388.2509909 -72.8201525 388.12628384 -91 388 C-91 380.41 -91 372.82 -91 365 C-68.32275013 364.23636441 -45.69021985 363.86678932 -23 364 C-23 356.08 -23 348.16 -23 340 C-15.74 340 -8.48 340 -1 340 C-1.03926123 334.39142834 -1.03926123 334.39142834 -1.09008789 328.78295898 C-1.09258545 328.06954346 -1.09508301 327.35612793 -1.09765625 326.62109375 C-1.10289307 325.9036499 -1.10812988 325.18620605 -1.11352539 324.44702148 C-0.96657926 321.2796213 -0.44841983 318.13893879 0 315 C7.26 315 14.52 315 22 315 C22 322.92 22 330.84 22 339 C30.25 339 38.5 339 47 339 C47 330.75 47 322.5 47 314 C39.08 314 31.16 314 23 314 C23 306.41 23 298.82 23 291 C22.34 291 21.68 291 21 291 C21 282.75 21 274.5 21 266 C35.40711369 265.92084003 49.62907671 266.03388751 64 267 C64 274.59 64 282.18 64 290 C86.77 290 109.54 290 133 290 C133 282.41 133 274.82 133 267 C131.09605469 267.01160156 129.19210937 267.02320313 127.23046875 267.03515625 C106.80136677 267.11837051 86.41706983 266.68382531 66 266 C66.33 259.07 66.66 252.14 67 245 C62.33367862 245.03925025 62.33367862 245.03925025 57.66748047 245.09008789 C53.66585856 245.10691055 49.92329411 244.77610335 46 244 C45.29523868 227.65178671 44.89017476 211.36396112 45 195 C51.93 195 58.86 195 66 195 C66 202.92 66 210.84 66 219 C95.04 219 124.08 219 154 219 C153.67 210.75 153.34 202.5 153 194 C124.62 194 96.24 194 67 194 C67 186.41 67 178.82 67 171 C52.48 171 37.96 171 23 171 C23 138.66 23 106.32 23 73 C15.08 73 7.16 73 -1 73 C-1.11673048 48.64223978 -0.87778124 24.34275466 0 0 Z " fill="#E62E89" transform="translate(406,365)"/>
<path d="M0 0 C1.39429449 -0.00128164 1.39429449 -0.00128164 2.81675655 -0.00258917 C5.94449218 -0.00424178 9.07217467 0.00127387 12.1999054 0.00672913 C14.43677265 0.00701107 16.67364 0.00685312 18.9105072 0.00628662 C24.99485432 0.00599893 31.07918184 0.01189109 37.16352439 0.01886058 C43.51767615 0.02509883 49.87182832 0.02569829 56.22598267 0.02688599 C66.89486573 0.02964403 77.56374102 0.03589631 88.23262024 0.04481506 C99.22220321 0.05399237 110.21178422 0.06107165 121.20137024 0.06532288 C122.21725998 0.06571696 122.21725998 0.06571696 123.25367274 0.06611901 C126.651245 0.06742403 130.04881727 0.06868774 133.44638956 0.06993091 C161.63807759 0.08029968 189.82975765 0.09798891 218.0214386 0.12025452 C218.0214386 0.45025452 218.0214386 0.78025452 218.0214386 1.12025452 C200.8614386 1.12025452 183.7014386 1.12025452 166.0214386 1.12025452 C166.0214386 8.71025452 166.0214386 16.30025452 166.0214386 24.12025452 C169.6308136 24.09962952 173.2401886 24.07900452 176.9589386 24.05775452 C190.00524311 24.02197535 202.98910895 24.52449088 216.0214386 25.12025452 C216.3514386 32.71025452 216.6814386 40.30025452 217.0214386 48.12025452 C223.6214386 48.45025452 230.2214386 48.78025452 237.0214386 49.12025452 C239.2730531 58.12671254 239.2730531 58.12671254 239.25190735 63.04994202 C239.24997375 64.71440369 239.24997375 64.71440369 239.2480011 66.41249084 C239.22866516 68.18595886 239.22866516 68.18595886 239.2089386 69.99525452 C239.20249329 71.23364075 239.19604797 72.47202698 239.18940735 73.74794006 C239.06672359 89.21088656 238.54815596 104.66674341 238.0214386 120.12025452 C230.4314386 120.12025452 222.8414386 120.12025452 215.0214386 120.12025452 C215.0214386 128.37025452 215.0214386 136.62025452 215.0214386 145.12025452 C207.1014386 145.12025452 199.1814386 145.12025452 191.0214386 145.12025452 C191.0214386 153.04025452 191.0214386 160.96025452 191.0214386 169.12025452 C175.1814386 169.12025452 159.3414386 169.12025452 143.0214386 169.12025452 C143.0214386 176.71025452 143.0214386 184.30025452 143.0214386 192.12025452 C118.44716101 193.0513668 93.90866819 193.25776159 69.31855655 193.22164845 C64.22180242 193.21527405 59.12504729 193.21480025 54.02828979 193.21362305 C44.43519762 193.21055032 34.84211723 193.20239338 25.24903017 193.19227356 C14.30288833 193.18098415 3.35674583 193.1755701 -7.58940041 193.17057812 C-30.05246076 193.16020595 -52.51550991 193.14247934 -74.9785614 193.12025452 C-74.9785614 185.53025452 -74.9785614 177.94025452 -74.9785614 170.12025452 C-54.1885614 170.12025452 -33.3985614 170.12025452 -11.9785614 170.12025452 C-11.9785614 162.20025452 -11.9785614 154.28025452 -11.9785614 146.12025452 C-42.6685614 145.62525452 -42.6685614 145.62525452 -73.9785614 145.12025452 C-73.9785614 153.04025452 -73.9785614 160.96025452 -73.9785614 169.12025452 C-90.98508663 169.70777174 -107.95909618 170.26208339 -124.9785614 170.12025452 C-125.3085614 177.38025452 -125.6385614 184.64025452 -125.9785614 192.12025452 C-146.99304725 193.21905116 -167.94192614 193.21645864 -188.9785614 193.12025452 C-188.9785614 185.53025452 -188.9785614 177.94025452 -188.9785614 170.12025452 C-177.7285614 168.99525452 -177.7285614 168.99525452 -172.8535614 169.05775452 C-171.92285828 169.06677795 -170.99215515 169.07580139 -170.0332489 169.08509827 C-169.01617859 169.10250061 -169.01617859 169.10250061 -167.9785614 169.12025452 C-167.99016296 167.96267639 -168.00176453 166.80509827 -168.01371765 165.61244202 C-168.02310217 164.07338114 -168.03220166 162.5343185 -168.0410614 160.99525452 C-168.04944031 160.23470764 -168.05781921 159.47416077 -168.06645203 158.69056702 C-168.07128601 157.56908264 -168.07128601 157.56908264 -168.07621765 156.42494202 C-168.08407288 155.40376282 -168.08407288 155.40376282 -168.09208679 154.36195374 C-167.95187546 151.59330762 -167.43430732 148.85473 -166.9785614 146.12025452 C-151.4685614 146.12025452 -135.9585614 146.12025452 -119.9785614 146.12025452 C-119.9785614 137.54025452 -119.9785614 128.96025452 -119.9785614 120.12025452 C-113.0485614 120.45025452 -106.1185614 120.78025452 -98.9785614 121.12025452 C-98.9785614 112.87025452 -98.9785614 104.62025452 -98.9785614 96.12025452 C-84.4585614 96.12025452 -69.9385614 96.12025452 -54.9785614 96.12025452 C-54.9785614 88.20025452 -54.9785614 80.28025452 -54.9785614 72.12025452 C3.1014386 72.12025452 61.1814386 72.12025452 121.0214386 72.12025452 C121.0214386 64.20025452 121.0214386 56.28025452 121.0214386 48.12025452 C69.5414386 48.12025452 18.0614386 48.12025452 -34.9785614 48.12025452 C-34.9785614 27.12025452 -34.9785614 27.12025452 -33.9785614 25.12025452 C-27.0485614 25.12025452 -20.1185614 25.12025452 -12.9785614 25.12025452 C-12.6485614 17.20025452 -12.3185614 9.28025452 -11.9785614 1.12025452 C-7.98652155 -0.21042543 -4.16166704 -0.01386184 0 0 Z " fill="#E92D8D" transform="translate(594.9785614013672,680.8797454833984)"/>
<path d="M0 0 C0.66 0 1.32 0 2 0 C2 15.18 2 30.36 2 46 C8.6 46 15.2 46 22 46 C22 46.33 22 46.66 22 47 C15.4 47 8.8 47 2 47 C1.67 54.59 1.34 62.18 1 70 C52.48 70 103.96 70 157 70 C157 77.92 157 85.84 157 94 C59.41894729 95.10363892 59.41894729 95.10363892 19.92663956 95.12338257 C17.82107319 95.12499344 15.71551784 95.12854007 13.60995483 95.13256836 C9.74646791 95.13942231 5.88302299 95.13704584 2.01953125 95.1328125 C0.917836 95.13479645 -0.18385925 95.1367804 -1.31893921 95.13882446 C-2.85138779 95.13415665 -2.85138779 95.13415665 -4.41479492 95.12939453 C-5.28343674 95.12859894 -6.15207855 95.12780334 -7.04704285 95.12698364 C-11.04533721 94.9550482 -15.02248777 94.4419458 -19 94 C-19 101.92 -19 109.84 -19 118 C-33.52 118 -48.04 118 -63 118 C-63 126.25 -63 134.5 -63 143 C-67.640625 143.0309375 -67.640625 143.0309375 -72.375 143.0625 C-73.34872559 143.071604 -74.32245117 143.08070801 -75.32568359 143.09008789 C-76.47544678 143.09383423 -76.47544678 143.09383423 -77.6484375 143.09765625 C-78.43395996 143.10289307 -79.21948242 143.10812988 -80.02880859 143.11352539 C-82 143 -82 143 -84 142 C-84 150.58 -84 159.16 -84 168 C-99.51 168 -115.02 168 -131 168 C-131.33 175.59 -131.66 183.18 -132 191 C-143 192 -143 192 -153 192 C-153 199.59 -153 207.18 -153 215 C-150.463125 214.9278125 -147.92625 214.855625 -145.3125 214.78125 C-126.87024444 214.26833196 -108.45109628 213.83276952 -90 214 C-90.01740234 212.74896484 -90.01740234 212.74896484 -90.03515625 211.47265625 C-90.04869141 209.78462891 -90.04869141 209.78462891 -90.0625 208.0625 C-90.07410156 206.96035156 -90.08570313 205.85820313 -90.09765625 204.72265625 C-89.98526853 200.43843648 -89.53480509 196.24889685 -89 192 C-72.00376668 190.7734677 -55.02843588 190.90545594 -38 191 C-38 183.08 -38 175.16 -38 167 C-17.21 167 3.58 167 25 167 C24.67 175.25 24.34 183.5 24 192 C3.21 192 -17.58 192 -39 192 C-39 199.59 -39 207.18 -39 215 C-36.75558609 214.98747192 -34.51117218 214.97494385 -32.19874573 214.96203613 C-10.91476504 214.84331925 10.36922115 214.72562861 31.65321255 214.60884857 C42.59213472 214.54880545 53.53105487 214.48843378 64.4699707 214.42724609 C74.02130441 214.37382084 83.57264151 214.32105534 93.12398297 214.26903296 C98.16587883 214.24155 103.2077726 214.21377019 108.2496624 214.18519592 C131.83341868 214.05177085 155.41584538 213.96808357 179 214 C179 206.41 179 198.82 179 191 C194.84 191 210.68 191 227 191 C227 183.08 227 175.16 227 167 C234.92 167 242.84 167 251 167 C251 158.75 251 150.5 251 142 C258.59 142 266.18 142 274 142 C274.02265802 133.92398524 274.04097683 125.84799549 274.05181217 117.7719574 C274.05701449 114.02129936 274.06406361 110.27066433 274.07543945 106.52001953 C274.08636302 102.89550553 274.09229678 99.27101357 274.09487724 95.64648438 C274.09671451 94.26871392 274.10030201 92.89094458 274.10573006 91.51318359 C274.13191236 84.58748623 274.09451493 77.84734601 273 71 C272.39937744 71.00523682 271.79875488 71.01047363 271.17993164 71.01586914 C268.47413162 71.03658014 265.76834823 71.04964125 263.0625 71.0625 C262.11697266 71.07087891 261.17144531 71.07925781 260.19726562 71.08789062 C258.84858398 71.09272461 258.84858398 71.09272461 257.47265625 71.09765625 C256.22367554 71.10551147 256.22367554 71.10551147 254.94946289 71.11352539 C253 71 253 71 252 70 C251.91286169 68.29227642 251.89299993 66.58101351 251.90234375 64.87109375 C251.90556641 63.83662109 251.90878906 62.80214844 251.91210938 61.73632812 C251.92048828 60.64771484 251.92886719 59.55910156 251.9375 58.4375 C251.94201172 57.34501953 251.94652344 56.25253906 251.95117188 55.12695312 C251.96300174 52.41791505 251.97948457 49.70898401 252 47 C251.37359619 47.00523682 250.74719238 47.01047363 250.10180664 47.01586914 C234.03150651 47.1310214 218.05484408 46.73393573 202 46 C202 38.41 202 30.82 202 23 C219.16 23 236.32 23 254 23 C254 30.59 254 38.18 254 46 C260.07279958 45.96056498 260.07279958 45.96056498 266.14550781 45.90991211 C266.90702148 45.90741455 267.66853516 45.90491699 268.453125 45.90234375 C269.22817383 45.89710693 270.00322266 45.89187012 270.80175781 45.88647461 C273 46 273 46 277 47 C277 54.26 277 61.52 277 69 C279.97 68.9690625 279.97 68.9690625 283 68.9375 C288.20419947 68.88328959 292.74120999 69.34265125 298 70 C298 102.34 298 134.68 298 168 C291.07 168 284.14 168 277 168 C277 175.92 277 183.84 277 192 C269.08 192 261.16 192 253 192 C253 199.59 253 207.18 253 215 C228.58 215 204.16 215 179 215 C179 223.58 179 232.16 179 241 C14.66 240.505 14.66 240.505 -153 240 C-153 247.92 -153 255.84 -153 264 C-167.85 264 -182.7 264 -198 264 C-198 247.83 -198 231.66 -198 215 C-190.74 215 -183.48 215 -176 215 C-176 207.08 -176 199.16 -176 191 C-229.46 191 -282.92 191 -338 191 C-338 183.41 -338 175.82 -338 168 C-346.91 168 -355.82 168 -365 168 C-365 159.75 -365 151.5 -365 143 C-372.59 143.33 -380.18 143.66 -388 144 C-388 111.66 -388 79.32 -388 46 C-380.08 46 -372.16 46 -364 46 C-364 37.42 -364 28.84 -364 20 C-351.13 20.495 -351.13 20.495 -338 21 C-338 29.25 -338 37.5 -338 46 C-346.25 46 -354.5 46 -363 46 C-362.83628906 47.88847656 -362.67257812 49.77695312 -362.50390625 51.72265625 C-361.58279307 64.26460722 -361.89479418 76.8715127 -361.9375 89.4375 C-361.94252498 92.01887934 -361.94708612 94.60025963 -361.95117188 97.18164062 C-361.96124062 103.45446999 -361.98083005 109.72716573 -362 116 C-354.08 116 -346.16 116 -338 116 C-338 124.58 -338 133.16 -338 142 C-322.16 142 -306.32 142 -290 142 C-290 149.92 -290 157.84 -290 166 C-287.38352539 165.99419922 -284.76705078 165.98839844 -282.07128906 165.98242188 C-254.97577323 165.93628339 -227.88797117 166.13631437 -200.7946167 166.46356201 C-195.59617255 166.52577702 -190.39769418 166.5849979 -185.19921875 166.64453125 C-175.13277802 166.76022399 -165.06638182 166.87929074 -155 167 C-155 159.41 -155 151.82 -155 144 C-150.73573666 143.85509785 -146.47147675 143.71193541 -142.20703125 143.57275391 C-140.76429151 143.52519457 -139.32158125 143.47673011 -137.87890625 143.42724609 C-127.5793777 143.07481809 -117.306032 142.95357643 -107 143 C-107 135.41 -107 127.82 -107 120 C-108.71036438 120.00253784 -110.42072876 120.00507568 -112.18292236 120.00769043 C-128.72230953 120.02460673 -145.25827453 119.94141057 -161.796875 119.78125 C-164.22308245 119.75871679 -166.64929097 119.73629898 -169.07550049 119.71398926 C-175.35515432 119.65594555 -181.63479267 119.59637164 -187.91442871 119.53643799 C-194.36481857 119.47515918 -200.81522236 119.41538419 -207.265625 119.35546875 C-219.8437639 119.23842034 -232.4218852 119.11960979 -245 119 C-245 110.75 -245 102.5 -245 94 C-259.85 94 -274.7 94 -290 94 C-290 86.08 -290 78.16 -290 70 C-286.42717439 69.28543488 -283.78254953 68.86345572 -280.25 68.875 C-279.47140625 68.87242187 -278.6928125 68.86984375 -277.890625 68.8671875 C-273.91333278 69.04992795 -269.95713626 69.56031819 -266 70 C-266.33 62.08 -266.66 54.16 -267 46 C-237.63 46 -208.26 46 -178 46 C-178 37.75 -178 29.5 -178 21 C-169.75 21 -161.5 21 -153 21 C-153.33 29.25 -153.66 37.5 -154 46 C-161.26 46 -168.52 46 -176 46 C-176 53.92 -176 61.84 -176 70 C-198.67816499 70.82842612 -221.30760924 71.12280909 -244 71 C-244 78.59 -244 86.18 -244 94 C-242.19645554 93.99777939 -240.39291107 93.99555878 -238.53471375 93.99327087 C-221.28856227 93.97273514 -204.04241336 93.95782388 -186.79625225 93.94818783 C-177.93618452 93.94310238 -169.0761262 93.93618716 -160.21606445 93.92456055 C-120.12979258 93.87297006 -80.07583461 93.96124411 -40 95 C-40 87.41 -40 79.82 -40 72 C-33.4 72 -26.8 72 -20 72 C-20 62.76 -20 53.52 -20 44 C-9.875 44 -9.875 44 -4.4375 45 C-2.88869141 45.2784375 -2.88869141 45.2784375 -1.30859375 45.5625 C-0.54675781 45.706875 0.21507812 45.85125 1 46 C0.96970703 45.38817871 0.93941406 44.77635742 0.90820312 44.14599609 C0.19526736 29.41838842 -0.13060771 14.74415914 0 0 Z " fill="#5D114B" transform="translate(559,659)"/>
<path d="M0 0 C21.12 0 42.24 0 64 0 C64 8.25 64 16.5 64 25 C55.91107091 25.63442581 48.13989681 26 40 26 C40 34.58 40 43.16 40 52 C17.96524994 52.095757 -3.98677886 52.10758345 -26 51 C-26 58.59 -26 66.18 -26 74 C-33.59 74 -41.18 74 -49 74 C-49 82.25 -49 90.5 -49 99 C-40.75 99 -32.5 99 -24 99 C-24 91.08 -24 83.16 -24 75 C-2.64638324 74.85067401 18.65187255 75.44004912 40 76 C40 90.52 40 105.04 40 120 C47.59 120 55.18 120 63 120 C63 168.84 63 217.68 63 268 C70.92 268 78.84 268 87 268 C87 300.34 87 332.68 87 366 C94.26 366 101.52 366 109 366 C109 389.43 109 412.86 109 437 C101.41 437 93.82 437 86 437 C85.90945576 421.60747944 86.19102711 406.37048492 87 391 C80.07 391 73.14 391 66 391 C66 374.83 66 358.66 66 342 C58.41 342 50.82 342 43 342 C43 349.26 43 356.52 43 364 C36.07 364 29.14 364 22 364 C22 356.41 22 348.82 22 341 C29.26 341 36.52 341 44 341 C44 333.08 44 325.16 44 317 C36.41 317 28.82 317 21 317 C21 309.41 21 301.82 21 294 C13.74 294 6.48 294 -1 294 C-1.33 291.36 -1.66 288.72 -2 286 C-2.2784375 287.9490625 -2.2784375 287.9490625 -2.5625 289.9375 C-2.66691406 290.66839844 -2.77132812 291.39929688 -2.87890625 292.15234375 C-2.91886719 292.76207031 -2.95882812 293.37179687 -3 294 C-2.67 294.33 -2.34 294.66 -2 295 C-1.91286169 296.70772358 -1.89299993 298.41898649 -1.90234375 300.12890625 C-1.90717773 301.68061523 -1.90717773 301.68061523 -1.91210938 303.26367188 C-1.92467773 304.8965918 -1.92467773 304.8965918 -1.9375 306.5625 C-1.94201172 307.65498047 -1.94652344 308.74746094 -1.95117188 309.87304688 C-1.9630016 312.58205432 -1.98093769 315.2910338 -2 318 C-9.26 318 -16.52 318 -24 318 C-24 311.07 -24 304.14 -24 297 C-26.36478516 297.01740234 -26.36478516 297.01740234 -28.77734375 297.03515625 C-30.83072799 297.04453243 -32.8841135 297.05363282 -34.9375 297.0625 C-35.97841797 297.07087891 -37.01933594 297.07925781 -38.09179688 297.08789062 C-39.57583008 297.09272461 -39.57583008 297.09272461 -41.08984375 297.09765625 C-42.46450806 297.10551147 -42.46450806 297.10551147 -43.86694336 297.11352539 C-46 297 -46 297 -47 296 C-47.33 303.92 -47.66 311.84 -48 320 C-48.33 320 -48.66 320 -49 320 C-49 312.08 -49 304.16 -49 296 C-57.25 296 -65.5 296 -74 296 C-74 287.42 -74 278.84 -74 270 C-82.58 270 -91.16 270 -100 270 C-100 253.17 -100 236.34 -100 219 C-107.59 219 -115.18 219 -123 219 C-123 179.4 -123 139.8 -123 99 C-115.74 99 -108.48 99 -101 99 C-101 83.16 -101 67.32 -101 51 C-92.09 51 -83.18 51 -74 51 C-74 42.42 -74 33.84 -74 25 C-67.31863873 24.976729 -60.63742459 24.95691476 -53.95605469 24.94506836 C-51.69498207 24.94011687 -49.43391251 24.93335393 -47.17285156 24.92456055 C-31.41298025 24.86491722 -15.74341895 25.24493421 0 26 C0 17.42 0 8.84 0 0 Z " fill="#CE1783" transform="translate(318,171)"/>
<path d="M0 0 C21.78 0 43.56 0 66 0 C66 7.59 66 15.18 66 23 C73.92 23 81.84 23 90 23 C90 61.61 90 100.22 90 140 C81.75 140 73.5 140 65 140 C65 157.16 65 174.32 65 192 C57.08 192 49.16 192 41 192 C41 200.91 41 209.82 41 219 C34.07 219.33 27.14 219.66 20 220 C20 227.26 20 234.52 20 242 C13.07 242 6.14 242 -1 242 C-1.33 249.26 -1.66 256.52 -2 264 C4.93 264 11.86 264 19 264 C19.72872276 272.38031171 20.10133398 280.58927981 20 289 C27.26 289 34.52 289 42 289 C42 289.33 42 289.66 42 290 C34.74 290 27.48 290 20 290 C20 295.28 20 300.56 20 306 C19.67 306 19.34 306 19 306 C19 300.39 19 294.78 19 289 C12.07 289 5.14 289 -2 289 C-2.33 281.41 -2.66 273.82 -3 266 C-10.26 266 -17.52 266 -25 266 C-25 282.17 -25 298.34 -25 315 C-31.6 315 -38.2 315 -45 315 C-44.9278125 316.63324219 -44.855625 318.26648438 -44.78125 319.94921875 C-44.18672216 333.98261921 -43.90108407 347.95393771 -44 362 C-51.26 362 -58.52 362 -66 362 C-66 338.24 -66 314.48 -66 290 C-49.125 290 -49.125 290 -42 291 C-42.00222061 290.24642715 -42.00444122 289.49285431 -42.00672913 288.71644592 C-42.03357916 279.16513956 -42.05175563 269.61383766 -42.0625 260.0625 C-42.06335602 259.30685005 -42.06421204 258.5512001 -42.06509399 257.77265167 C-42.08707534 235.83461109 -42.01525677 213.91982571 -41 192 C-38.95840905 191.9727384 -36.91671037 191.95348655 -34.875 191.9375 C-33.73804688 191.92589844 -32.60109375 191.91429687 -31.4296875 191.90234375 C-28.18272987 191.99479699 -25.19196525 192.4340626 -22 193 C-22.00114555 192.36772806 -22.00229111 191.73545612 -22.00347137 191.08402443 C-22.03117514 173.16679097 -21.9334152 155.25245618 -21.78125 137.3359375 C-21.75861798 134.59298878 -21.73630829 131.85003746 -21.71398926 129.10708618 C-21.66171471 122.70473795 -21.60837491 116.30239909 -21.5546174 109.90006316 C-21.49330322 102.59126284 -21.43322987 95.28245247 -21.37324238 87.97364116 C-21.25017419 72.98241608 -21.12544383 57.99120542 -21 43 C-13.74 43 -6.48 43 1 43 C0.835 40.545625 0.67 38.09125 0.5 35.5625 C-0.06057173 23.72042229 0 11.85533825 0 0 Z " fill="#CE1783" transform="translate(672,247)"/>
<path d="M0 0 C61.05 0 122.1 0 185 0 C185 8.25 185 16.5 185 25 C176.75 25 168.5 25 160 25 C160 33.25 160 41.5 160 50 C130.63 50 101.26 50 71 50 C71.495 52.475 71.495 52.475 72 55 C72.07595256 56.54665547 72.10819015 58.09604781 72.09765625 59.64453125 C72.09515869 60.40354736 72.09266113 61.16256348 72.09008789 61.94458008 C72.08098389 62.89099365 72.07187988 63.83740723 72.0625 64.8125 C72.041875 67.844375 72.02125 70.87625 72 74 C64.08 74 56.16 74 48 74 C48 81.92 48 89.84 48 98 C62.85 98 77.7 98 93 98 C93 106.25 93 114.5 93 123 C96.1855957 122.99476318 99.37119141 122.98952637 102.65332031 122.98413086 C113.29418217 122.96740431 123.93504468 122.95645348 134.57591629 122.94818783 C141.01415972 122.94301566 147.45238945 122.93602383 153.890625 122.92456055 C160.12822348 122.91352667 166.36580895 122.90768078 172.60341644 122.90512276 C174.958282 122.90330478 177.31314703 122.8997572 179.6680069 122.89426994 C196.80253071 122.85600834 213.88084587 123.2888103 231 124 C231 131.59 231 139.18 231 147 C215.01458682 148.33211776 199.02704791 148.08752635 183 148 C183 155.59 183 163.18 183 171 C171.89498582 171.02302034 160.78998868 171.04117681 149.6849556 171.05181217 C144.52287121 171.05692851 139.36080461 171.06380773 134.19873047 171.07543945 C105.44988004 171.1385165 76.73838566 170.78491649 48 170 C48 162.08 48 154.16 48 146 C32.16 146 16.32 146 0 146 C0 137.42 0 128.84 0 120 C-7.92 120 -15.84 120 -24 120 C-24.33 96.9 -24.66 73.8 -25 50 C-16.75 50 -8.5 50 0 50 C0 33.5 0 17 0 0 Z " fill="#EA2D8E" transform="translate(221,655)"/>
<path d="M0 0 C21.12 0 42.24 0 64 0 C64 8.25 64 16.5 64 25 C55.91107091 25.63442581 48.13989681 26 40 26 C40 34.58 40 43.16 40 52 C17.96524994 52.095757 -3.98677886 52.10758345 -26 51 C-26 58.59 -26 66.18 -26 74 C-33.59 74 -41.18 74 -49 74 C-49 121.19 -49 168.38 -49 217 C-40.75 217 -32.5 217 -24 217 C-24 233.5 -24 250 -24 267 C-16.08 267 -8.16 267 0 267 C0 267.66 0 268.32 0 269 C-7.92 269 -15.84 269 -24 269 C-24 277.58 -24 286.16 -24 295 C-24.66 294.67 -25.32 294.34 -26 294 C-26 285.75 -26 277.5 -26 269 C-33.26 269 -40.52 269 -48 269 C-48 285.83 -48 302.66 -48 320 C-48.33 320 -48.66 320 -49 320 C-49 312.08 -49 304.16 -49 296 C-57.25 296 -65.5 296 -74 296 C-74 287.42 -74 278.84 -74 270 C-82.58 270 -91.16 270 -100 270 C-100 253.17 -100 236.34 -100 219 C-107.59 219 -115.18 219 -123 219 C-123 179.4 -123 139.8 -123 99 C-115.74 99 -108.48 99 -101 99 C-101 83.16 -101 67.32 -101 51 C-92.09 51 -83.18 51 -74 51 C-74 42.42 -74 33.84 -74 25 C-67.31863873 24.976729 -60.63742459 24.95691476 -53.95605469 24.94506836 C-51.69498207 24.94011687 -49.43391251 24.93335393 -47.17285156 24.92456055 C-31.41298025 24.86491722 -15.74341895 25.24493421 0 26 C0 17.42 0 8.84 0 0 Z " fill="#5B0F48" transform="translate(318,171)"/>
<path d="M0 0 C7.26 0 14.52 0 22 0 C22 38.94 22 77.88 22 118 C14.74 118 7.48 118 0 118 C0 134.5 0 151 0 168 C-7.92 168 -15.84 168 -24 168 C-24 176.25 -24 184.5 -24 193 C-33 194.125 -33 194.125 -36.71875 194.09765625 C-37.42966797 194.09515869 -38.14058594 194.09266113 -38.87304688 194.09008789 C-39.73994141 194.08098389 -40.60683594 194.07187988 -41.5 194.0625 C-44.305 194.041875 -47.11 194.02125 -50 194 C-50 201.59 -50 209.18 -50 217 C-58.25 217 -66.5 217 -75 217 C-75 224.92 -75 232.84 -75 241 C-82.59 241 -90.18 241 -98 241 C-98 248.92 -98 256.84 -98 265 C-105.26 265 -112.52 265 -120 265 C-120.80816525 256.61528555 -121.09156225 248.42372696 -121 240 C-127.93 240 -134.86 240 -142 240 C-142.06703728 232.424787 -142.07272918 225.50910428 -141 218 C-134.07 218 -127.14 218 -120 218 C-120.495 206.615 -120.495 206.615 -121 195 C-113.74 195 -106.48 195 -99 195 C-99 186.09 -99 177.18 -99 168 C-91.08 167.67 -83.16 167.34 -75 167 C-74.67 150.83 -74.34 134.66 -74 118 C-66.41 118 -58.82 118 -51 118 C-50.34 117.67 -49.68 117.34 -49 117 C-49 133.5 -49 150 -49 167 C-41.08 167 -33.16 167 -25 167 C-25 150.5 -25 134 -25 117 C-32.59 117 -40.18 117 -48 117 C-48 116.67 -48 116.34 -48 116 C-40.41 116 -32.82 116 -25 116 C-25 81.02 -25 46.04 -25 10 C-24.67 10 -24.34 10 -24 10 C-24 45.64 -24 81.28 -24 118 C-16.41 118 -8.82 118 -1 118 C-1.00523682 114.81625732 -1.01047363 111.63251465 -1.01586914 108.35229492 C-1.03247436 97.80711038 -1.04349896 87.26192525 -1.05181217 76.71673107 C-1.05702012 70.32620232 -1.06407971 63.93568702 -1.07543945 57.54516602 C-1.08634271 51.37248414 -1.09229256 45.19981517 -1.09487724 39.0271244 C-1.09671812 36.67774566 -1.1003128 34.32836759 -1.10573006 31.97899437 C-1.11303929 28.6763293 -1.1139868 25.37371684 -1.11352539 22.07104492 C-1.11712067 21.11006393 -1.12071594 20.14908295 -1.12442017 19.15898132 C-1.11474503 12.71598115 -0.65714992 6.41019715 0 0 Z " fill="#570D43" transform="translate(812,271)"/>
<path d="M0 0 C0.16280931 39.0867585 -0.11933712 78.16518125 -0.5 117.25 C-0.51195782 118.47812534 -0.52391563 119.70625069 -0.53623581 120.97159195 C-0.68606456 136.3144436 -0.84078488 151.65724299 -1 167 C-4.81248426 167.02887236 -8.6249407 167.04675492 -12.4375 167.0625 C-13.52611328 167.07087891 -14.61472656 167.07925781 -15.73632812 167.08789062 C-16.77080078 167.09111328 -17.80527344 167.09433594 -18.87109375 167.09765625 C-20.30859985 167.10551147 -20.30859985 167.10551147 -21.77514648 167.11352539 C-24 167 -24 167 -25 166 C-25 182.5 -25 199 -25 216 C-33.58 216 -42.16 216 -51 216 C-51 199.83 -51 183.66 -51 167 C-58.59 167 -66.18 167 -74 167 C-74 183.17 -74 199.34 -74 216 C-74.33 216 -74.66 216 -75 216 C-75 199.17 -75 182.34 -75 165 C-66.75 165 -58.5 165 -50 165 C-50 126.39 -50 87.78 -50 48 C-41.75 48 -33.5 48 -25 48 C-25.01160156 44.69097656 -25.02320313 41.38195312 -25.03515625 37.97265625 C-25.04294581 34.78230892 -25.04902314 31.59196263 -25.05493164 28.40161133 C-25.05997317 26.17732268 -25.06680623 23.95303737 -25.07543945 21.72875977 C-25.08751298 18.53921691 -25.09322996 15.34971771 -25.09765625 12.16015625 C-25.10281754 11.15912369 -25.10797882 10.15809113 -25.11329651 9.12672424 C-25.11337204 8.20584518 -25.11344757 7.28496613 -25.11352539 6.33618164 C-25.115746 5.52121719 -25.11796661 4.70625275 -25.12025452 3.86659241 C-25 2 -25 2 -24 1 C-22.30611221 0.8425553 -20.60617933 0.74905311 -18.90625 0.68359375 C-17.87628906 0.64169922 -16.84632813 0.59980469 -15.78515625 0.55664062 C-14.70105469 0.51732422 -13.61695313 0.47800781 -12.5 0.4375 C-11.41589844 0.39431641 -10.33179688 0.35113281 -9.21484375 0.30664062 C-1.43687996 0 -1.43687996 0 0 0 Z " fill="#660F50" transform="translate(812,222)"/>
<path d="M0 0 C21.12 0 42.24 0 64 0 C64 8.25 64 16.5 64 25 C55.91107091 25.63442581 48.13989681 26 40 26 C40 34.58 40 43.16 40 52 C17.96524994 52.095757 -3.98677886 52.10758345 -26 51 C-26 58.59 -26 66.18 -26 74 C-33.59 74 -41.18 74 -49 74 C-49 82.25 -49 90.5 -49 99 C-57.25 99 -65.5 99 -74 99 C-74 83.49 -74 67.98 -74 52 C-82.91 52 -91.82 52 -101 52 C-101 51.67 -101 51.34 -101 51 C-92.09 51 -83.18 51 -74 51 C-74 42.42 -74 33.84 -74 25 C-67.31863873 24.976729 -60.63742459 24.95691476 -53.95605469 24.94506836 C-51.69498207 24.94011687 -49.43391251 24.93335393 -47.17285156 24.92456055 C-31.41298025 24.86491722 -15.74341895 25.24493421 0 26 C0 17.42 0 8.84 0 0 Z " fill="#F22B9B" transform="translate(318,171)"/>
<path d="M0 0 C1.53188965 -0.00472824 1.53188965 -0.00472824 3.09472656 -0.009552 C4.18237305 -0.00752777 5.27001953 -0.00550354 6.390625 -0.00341797 C7.52209961 -0.00437469 8.65357422 -0.00533142 9.81933594 -0.00631714 C12.20638078 -0.00699621 14.59342748 -0.00516097 16.98046875 -0.00097656 C20.62764649 0.00437549 24.27470108 -0.00093084 27.921875 -0.00732422 C30.24479194 -0.00666339 32.5677088 -0.00538213 34.890625 -0.00341797 C36.52209473 -0.00645432 36.52209473 -0.00645432 38.18652344 -0.009552 C39.2077832 -0.00639984 40.22904297 -0.00324768 41.28125 0 C42.17360352 0.00079559 43.06595703 0.00159119 43.98535156 0.00241089 C46.89147558 0.14139101 49.77076578 0.65108466 52.640625 1.12939453 C52.640625 9.37939453 52.640625 17.62939453 52.640625 26.12939453 C54.80625 26.10876953 56.971875 26.08814453 59.203125 26.06689453 C73.01832487 26.00784291 86.83642746 26.64105905 100.640625 27.12939453 C100.640625 35.04939453 100.640625 42.96939453 100.640625 51.12939453 C124.895625 51.62439453 124.895625 51.62439453 149.640625 52.12939453 C149.640625 52.45939453 149.640625 52.78939453 149.640625 53.12939453 C138.255625 53.62439453 138.255625 53.62439453 126.640625 54.12939453 C126.310625 69.30939453 125.980625 84.48939453 125.640625 100.12939453 C117.390625 100.12939453 109.140625 100.12939453 100.640625 100.12939453 C99.97267106 91.69647607 99.640625 83.62605845 99.640625 75.12939453 C92.050625 75.12939453 84.460625 75.12939453 76.640625 75.12939453 C76.640625 67.20939453 76.640625 59.28939453 76.640625 51.12939453 C73.99417969 51.29310547 71.34773437 51.45681641 68.62109375 51.62548828 C57.0649841 52.27224799 45.52337676 52.24133607 33.953125 52.19189453 C31.87174589 52.18686195 29.79036557 52.1823022 27.70898438 52.17822266 C22.68614266 52.16823689 17.6634732 52.14863916 12.640625 52.12939453 C12.640625 44.20939453 12.640625 36.28939453 12.640625 28.12939453 C9.010625 28.12939453 5.380625 28.12939453 1.640625 28.12939453 C-0.75726391 27.99551439 -3.1540882 27.83522565 -5.546875 27.62939453 C-7.465 27.46439453 -9.383125 27.29939453 -11.359375 27.12939453 C-11.359375 18.54939453 -11.359375 9.96939453 -11.359375 1.12939453 C-7.27968359 0.44944596 -4.02784983 0.0035911 0 0 Z " fill="#F22A9A" transform="translate(661.359375,169.87060546875)"/>
<path d="M0 0 C0.33 0 0.66 0 1 0 C1.33 8.91 1.66 17.82 2 27 C9.26 27.33 16.52 27.66 24 28 C24 34.93 24 41.86 24 49 C31.26 49 38.52 49 46 49 C46 41.41 46 33.82 46 26 C39.4 26 32.8 26 26 26 C26 25.67 26 25.34 26 25 C32.27 25 38.54 25 45 25 C45.33 18.07 45.66 11.14 46 4 C46.33 4 46.66 4 47 4 C47 10.93 47 17.86 47 25 C54.26 25 61.52 25 69 25 C69 32.59 69 40.18 69 48 C76.59 48 84.18 48 92 48 C92 55.92 92 63.84 92 72 C84.74 72 77.48 72 70 72 C70 79.59 70 87.18 70 95 C76.93 95 83.86 95 91 95 C91 87.74 91 80.48 91 73 C98.59 73 106.18 73 114 73 C114 89.17 114 105.34 114 122 C116.97 122 119.94 122 123 122 C120 125 120 125 116.8125 125.1875 C115.884375 125.125625 114.95625 125.06375 114 125 C114.17361557 125.54642151 114.34723114 126.09284302 114.52610779 126.65582275 C115.08743728 129.43252133 114.88017963 131.69071108 114.58227539 134.50683594 C114.00304607 140.64231161 113.78553099 146.7309006 113.68359375 152.890625 C113.6524221 154.49656525 113.6524221 154.49656525 113.62062073 156.13494873 C113.55599041 159.50657642 113.49664888 162.87827216 113.4375 166.25 C113.39423219 168.55599621 113.35061549 170.86198591 113.30664062 173.16796875 C113.20039978 178.77857692 113.098484 184.38925059 113 190 C112.67 190 112.34 190 112 190 C112 174.82 112 159.64 112 144 C105.07 144 98.14 144 91 144 C91 136.08 91 128.16 91 120 C83.08 120 75.16 120 67 120 C67 112.08 67 104.16 67 96 C60.4 96 53.8 96 47 96 C47 88.08 47 80.16 47 72 C38.75 72 30.5 72 22 72 C22 65.4 22 58.8 22 52 C14.41 52 6.82 52 -1 52 C-0.67 34.84 -0.34 17.68 0 0 Z " fill="#61114B" transform="translate(270,440)"/>
<path d="M0 0 C12.87 0.495 12.87 0.495 26 1 C26 9.25 26 17.5 26 26 C17.75 26 9.5 26 1 26 C1.24556641 28.83271484 1.24556641 28.83271484 1.49609375 31.72265625 C2.41720693 44.26460722 2.10520582 56.8715127 2.0625 69.4375 C2.05747502 72.01887934 2.05291388 74.60025963 2.04882812 77.18164062 C2.03875938 83.45446999 2.01916995 89.72716573 2 96 C9.92 96 17.84 96 26 96 C26 104.58 26 113.16 26 122 C35.9 122 45.8 122 56 122 C54.02 122.99 54.02 122.99 52 124 C52.01160156 124.99773437 52.02320313 125.99546875 52.03515625 127.0234375 C52.13897583 140.70491135 51.57556385 154.33035854 51 168 C65.19 168 79.38 168 94 168 C94 168.33 94 168.66 94 169 C71.89 169 49.78 169 27 169 C27 161.41 27 153.82 27 146 C22.68745917 145.97317701 18.37508293 145.95324756 14.0625 145.9375 C12.83080078 145.92912109 11.59910156 145.92074219 10.33007812 145.91210938 C9.16025391 145.90888672 7.99042969 145.90566406 6.78515625 145.90234375 C5.70113525 145.89710693 4.61711426 145.89187012 3.50024414 145.88647461 C1.05950052 145.71573103 1.05950052 145.71573103 0 147 C8.58 147 17.16 147 26 147 C26 147.33 26 147.66 26 148 C17.09 148 8.18 148 -1 148 C-1 139.75 -1 131.5 -1 123 C-8.59 123.33 -16.18 123.66 -24 124 C-24 91.66 -24 59.32 -24 26 C-16.08 26 -8.16 26 0 26 C0 17.42 0 8.84 0 0 Z " fill="#6F1255" transform="translate(195,679)"/>
<path d="M0 0 C58.08 0 116.16 0 176 0 C176 9.24 176 18.48 176 28 C118.58 28 61.16 28 2 28 C2 36.25 2 44.5 2 53 C-5.92 53 -13.84 53 -22 53 C-22 44.75 -22 36.5 -22 28 C-14.74 28 -7.48 28 0 28 C0 18.76 0 9.52 0 0 Z " fill="#571147" transform="translate(428,117)"/>
<path d="M0 0 C36.3 0 72.6 0 110 0 C110 8.25 110 16.5 110 25 C126.17 25 142.34 25 159 25 C159 33.58 159 42.16 159 51 C167.25 51 175.5 51 184 51 C184 59.58 184 68.16 184 77 C181.009375 77.020625 178.01875 77.04125 174.9375 77.0625 C174.00929443 77.071604 173.08108887 77.08070801 172.12475586 77.09008789 C171.37073486 77.09258545 170.61671387 77.09508301 169.83984375 77.09765625 C168.70083618 77.10551147 168.70083618 77.10551147 167.53881836 77.11352539 C164.34081638 76.97052405 161.16902394 76.45271771 158 76 C158 68.08 158 60.16 158 52 C155.95941406 52.01160156 153.91882813 52.02320313 151.81640625 52.03515625 C137.83692191 52.09003492 123.94939832 52.0628113 110 51 C110 42.75 110 34.5 110 26 C88.88 26 67.76 26 46 26 C46 34.58 46 43.16 46 52 C35.11 51.505 35.11 51.505 24 51 C24 42.42 24 33.84 24 25 C16.08 25 8.16 25 0 25 C0 16.75 0 8.5 0 0 Z " fill="#6D0E50" transform="translate(604,145)"/>
<path d="M0 0 C7.26 0 14.52 0 22 0 C22 16.17 22 32.34 22 49 C14.08 49 6.16 49 -2 49 C-2 56.92 -2 64.84 -2 73 C-9.59 73 -17.18 73 -25 73 C-25 80.92 -25 88.84 -25 97 C-32.26 97 -39.52 97 -47 97 C-47.80816525 88.61528555 -48.09156225 80.42372696 -48 72 C-54.93 72 -61.86 72 -69 72 C-69.06703728 64.424787 -69.07272918 57.50910428 -68 50 C-61.07 50 -54.14 50 -47 50 C-47.495 38.615 -47.495 38.615 -48 27 C-24.735 26.505 -24.735 26.505 -1 26 C-1.0395914 17.81747203 -1.0395914 17.81747203 -1.09008789 9.63500977 C-1.09258545 8.62237061 -1.09508301 7.60973145 -1.09765625 6.56640625 C-1.10289307 5.52427979 -1.10812988 4.48215332 -1.11352539 3.40844727 C-1 1 -1 1 0 0 Z " fill="#571047" transform="translate(739,439)"/>
<path d="M0 0 C29.04 0 58.08 0 88 0 C88 28.74228395 88 28.74228395 87.5 39.0625 C87.335 42.671875 87.17 46.28125 87 50 C79.74 50 72.48 50 65 50 C65 42.08 65 34.16 65 26 C43.55 26 22.1 26 0 26 C0 34.58 0 43.16 0 52 C-16.38224137 52.09809725 -32.63394509 51.74391159 -49 51 C-49 42.42 -49 33.84 -49 25 C-32.83 25 -16.66 25 0 25 C0 16.75 0 8.5 0 0 Z " fill="#6C0E52" transform="translate(318,145)"/>
<path d="M0 0 C15.51 0 31.02 0 47 0 C47 8.25 47 16.5 47 25 C38.42 25 29.84 25 21 25 C21.01160156 28.38121094 21.02320313 31.76242188 21.03515625 35.24609375 C21.04294575 38.5059398 21.04902312 41.76578483 21.05493164 45.02563477 C21.05997325 47.29842591 21.06680637 49.5712138 21.07543945 51.84399414 C21.08751261 55.10303551 21.09322987 58.36203417 21.09765625 61.62109375 C21.10281754 62.64400009 21.10797882 63.66690643 21.11329651 64.72080994 C21.11337204 65.66170975 21.11344757 66.60260956 21.11352539 67.57202148 C21.115746 68.40475082 21.11796661 69.23748016 21.12025452 70.09544373 C21 72 21 72 20 73 C17.88318683 73.0942174 15.76319242 73.11742761 13.64428711 73.11352539 C12.98089828 73.11367142 12.31750946 73.11381744 11.63401794 73.1139679 C9.43176044 73.11326881 7.22958655 73.10547665 5.02734375 73.09765625 C3.50419664 73.09579206 1.98104893 73.09436816 0.457901 73.09336853 C-3.55837651 73.08954346 -7.57461808 73.07971328 -11.59088135 73.06866455 C-15.68623366 73.05845019 -19.78159176 73.05387086 -23.87695312 73.04882812 C-31.91798712 73.03809099 -39.95898495 73.02049429 -48 73 C-48 65.74 -48 58.48 -48 51 C-40.08 51 -32.16 51 -24 51 C-23.67 42.42 -23.34 33.84 -23 25 C-15.41 25 -7.82 25 0 25 C0 16.75 0 8.5 0 0 Z " fill="#63104D" transform="translate(583,219)"/>
<path d="M0 0 C0 7.59 0 15.18 0 23 C7.26 23 14.52 23 22 23 C22 31.58 22 40.16 22 49 C29.92 49 37.84 49 46 49 C46 56.26 46 63.52 46 71 C23.23 71 0.46 71 -23 71 C-23 55.16 -23 39.32 -23 23 C-30.26 23 -37.52 23 -45 23 C-45 15.74 -45 8.48 -45 1 C-29.98295366 0.31069296 -15.03352858 -0.11135947 0 0 Z " fill="#59114A" transform="translate(451,221)"/>
<path d="M0 0 C8.25 0 16.5 0 25 0 C25 38.94 25 77.88 25 118 C16.75 118 8.5 118 0 118 C0 79.06 0 40.12 0 0 Z " fill="#F22C9A" transform="translate(218,270)"/>
<path d="M0 0 C7.92 0 15.84 0 24 0 C23.67 39.27 23.34 78.54 23 119 C15.41 119 7.82 119 0 119 C0 79.73 0 40.46 0 0 Z " fill="#F02B98" transform="translate(788,270)"/>
<path d="M0 0 C0 38.61 0 77.22 0 117 C-7.59 117 -15.18 117 -23 117 C-23 78.72 -23 40.44 -23 1 C-15.47511252 -0.5049775 -7.67390962 0 0 0 Z " fill="#60104D" transform="translate(268,270)"/>
<path d="M0 0 C36.3 0 72.6 0 110 0 C110 7.92 110 15.84 110 24 C73.7 24 37.4 24 0 24 C0 16.08 0 8.16 0 0 Z " fill="#62104D" transform="translate(584,802)"/>
<path d="M0 0 C6.6 0 13.2 0 20 0 C20 38.28 20 76.56 20 116 C13.07 116 6.14 116 -1 116 C-1.0226786 103.09029679 -1.04098858 90.18060703 -1.05181217 77.27088833 C-1.05700944 71.27506705 -1.06404915 65.27926023 -1.07543945 59.28344727 C-1.08638126 53.48681053 -1.09230055 47.69018761 -1.09487724 41.89354134 C-1.09671128 39.69260503 -1.10029227 37.49166941 -1.10573006 35.29073906 C-1.13374559 23.47114419 -0.96550737 11.78319892 0 0 Z " fill="#6D1051" transform="translate(813,272)"/>
<path d="M0 0 C0 7.92 0 15.84 0 24 C6.93 24 13.86 24 21 24 C21 31.92 21 39.84 21 48 C14.07 48 7.14 48 0 48 C0 56.25 0 64.5 0 73 C-6.6 73 -13.2 73 -20 73 C-20 96.1 -20 119.2 -20 143 C-20.33 143 -20.66 143 -21 143 C-21 119.57 -21 96.14 -21 72 C-21.66 72 -22.32 72 -23 72 C-23 48.57 -23 25.14 -23 1 C-1 0 -1 0 0 0 Z " fill="#550D42" transform="translate(670,512)"/>
<path d="M0 0 C0.33 0 0.66 0 1 0 C1 16.5 1 33 1 50 C8.92 50 16.84 50 25 50 C25 50.33 25 50.66 25 51 C8.98390957 51.72154925 -6.9670647 52.10688624 -23 52 C-23.33 60.25 -23.66 68.5 -24 77 C-16.74 77 -9.48 77 -2 77 C-2 77.33 -2 77.66 -2 78 C-17.51 78 -33.02 78 -49 78 C-49 69.09 -49 60.18 -49 51 C-41.08 50.67 -33.16 50.34 -25 50 C-24.67 33.83 -24.34 17.66 -24 1 C-16.41 1 -8.82 1 -1 1 C-0.67 0.67 -0.34 0.34 0 0 Z " fill="#690E53" transform="translate(762,388)"/>
<path d="M0 0 C0.33 0 0.66 0 1 0 C1.33 8.91 1.66 17.82 2 27 C9.26 27.33 16.52 27.66 24 28 C24 34.93 24 41.86 24 49 C31.26 49 38.52 49 46 49 C46 41.41 46 33.82 46 26 C39.4 26 32.8 26 26 26 C26 25.67 26 25.34 26 25 C32.27 25 38.54 25 45 25 C45.33 18.07 45.66 11.14 46 4 C46.33 4 46.66 4 47 4 C47 10.93 47 17.86 47 25 C54.26 25 61.52 25 69 25 C69.020625 27.660625 69.04125 30.32125 69.0625 33.0625 C69.071604 33.8862915 69.08070801 34.71008301 69.09008789 35.55883789 C69.09258545 36.23164795 69.09508301 36.90445801 69.09765625 37.59765625 C69.10289307 38.27320557 69.10812988 38.94875488 69.11352539 39.64477539 C68.96232791 42.781554 68.44412252 45.89114235 68 49 C61.07 49 54.14 49 47 49 C47 56.59 47 64.18 47 72 C38.75 72 30.5 72 22 72 C22 65.4 22 58.8 22 52 C14.41 52 6.82 52 -1 52 C-0.67 34.84 -0.34 17.68 0 0 Z " fill="#710E52" transform="translate(270,440)"/>
<path d="M0 0 C15.18 0 30.36 0 46 0 C46 8.25 46 16.5 46 25 C47.98 25 49.96 25 52 25 C52 25.33 52 25.66 52 26 C50.02 26 48.04 26 46 26 C46 34.58 46 43.16 46 52 C35.11 51.505 35.11 51.505 24 51 C24 42.42 24 33.84 24 25 C16.08 25 8.16 25 0 25 C0 16.75 0 8.5 0 0 Z " fill="#EE0F89" transform="translate(604,145)"/>
<path d="M0 0 C6.93 0 13.86 0 21 0 C21.33 8.25 21.66 16.5 22 25 C22.33 16.75 22.66 8.5 23 0 C30.92 0 38.84 0 47 0 C47 1.65 47 3.3 47 5 C46.67 5 46.34 5 46 5 C45.63707854 8.31160283 45.28613268 11.62436488 44.9375 14.9375 C44.83373047 15.88302734 44.72996094 16.82855469 44.62304688 17.80273438 C44.52958984 18.70185547 44.43613281 19.60097656 44.33984375 20.52734375 C44.25081787 21.35999756 44.16179199 22.19265137 44.07006836 23.05053711 C44.0469458 23.69385986 44.02382324 24.33718262 44 25 C44.33 25.33 44.66 25.66 45 26 C45.08713831 27.70772358 45.10700007 29.41898649 45.09765625 31.12890625 C45.09443359 32.16337891 45.09121094 33.19785156 45.08789062 34.26367188 C45.07532227 35.8965918 45.07532227 35.8965918 45.0625 37.5625 C45.05798828 38.65498047 45.05347656 39.74746094 45.04882812 40.87304688 C45.0369984 43.58205432 45.01906231 46.2910338 45 49 C37.74 49 30.48 49 23 49 C23 42.07 23 35.14 23 28 C20.63521484 28.01740234 20.63521484 28.01740234 18.22265625 28.03515625 C16.16927201 28.04453243 14.1158865 28.05363282 12.0625 28.0625 C10.50112305 28.07506836 10.50112305 28.07506836 8.90820312 28.08789062 C7.91884766 28.09111328 6.92949219 28.09433594 5.91015625 28.09765625 C4.53549194 28.10551147 4.53549194 28.10551147 3.13305664 28.11352539 C1 28 1 28 0 27 C-0.08758003 25.00035018 -0.10696576 22.9976389 -0.09765625 20.99609375 C-0.09443359 19.78115234 -0.09121094 18.56621094 -0.08789062 17.31445312 C-0.07951172 16.03505859 -0.07113281 14.75566406 -0.0625 13.4375 C-0.05798828 12.15423828 -0.05347656 10.87097656 -0.04882812 9.54882812 C-0.03699555 6.3658658 -0.01905944 3.18292726 0 0 Z " fill="#630E4C" transform="translate(271,440)"/>
<path d="M0 0 C7.26 0 14.52 0 22 0 C22 16.17 22 32.34 22 49 C6.49 49 -9.02 49 -25 49 C-25 41.74 -25 34.48 -25 27 C-17.08 26.67 -9.16 26.34 -1 26 C-1.01160156 24.20691406 -1.02320313 22.41382813 -1.03515625 20.56640625 C-1.04453229 18.23177187 -1.05363269 15.89713637 -1.0625 13.5625 C-1.07087891 12.37849609 -1.07925781 11.19449219 -1.08789062 9.97460938 C-1.09272461 8.28754883 -1.09272461 8.28754883 -1.09765625 6.56640625 C-1.10289307 5.52427979 -1.10812988 4.48215332 -1.11352539 3.40844727 C-1 1 -1 1 0 0 Z " fill="#6A0D4E" transform="translate(739,439)"/>
<path d="M0 0 C8.25 0 16.5 0 25 0 C25 16.83 25 33.66 25 51 C16.75 51 8.5 51 0 51 C-1.09693401 19.07138511 -1.09693401 19.07138511 -1.125 8.0625 C-1.12951172 7.33756348 -1.13402344 6.61262695 -1.13867188 5.86572266 C-1.12446586 1.12446586 -1.12446586 1.12446586 0 0 Z " fill="#F42C9C" transform="translate(244,388)"/>
<path d="M0 0 C16.17 0 32.34 0 49 0 C49 8.58 49 17.16 49 26 C32.61775863 26.09809725 16.36605491 25.74391159 0 25 C0 16.75 0 8.5 0 0 Z " fill="#6B0D52" transform="translate(269,171)"/>
<path d="M0 0 C0.33 0 0.66 0 1 0 C1.02526945 6.6752034 1.04283268 13.35039457 1.05493164 20.02563477 C1.05997325 22.29842591 1.06680637 24.5712138 1.07543945 26.84399414 C1.08751261 30.10303551 1.09322987 33.36203417 1.09765625 36.62109375 C1.10281754 37.64400009 1.10797882 38.66690643 1.11329651 39.72080994 C1.11337204 40.66170975 1.11344757 41.60260956 1.11352539 42.57202148 C1.115746 43.40475082 1.11796661 44.23748016 1.12025452 45.09544373 C1 47 1 47 0 48 C-1.4674896 48.09565123 -2.93956884 48.12188309 -4.41017151 48.12025452 C-5.36234558 48.12162918 -6.31451965 48.12300385 -7.29554749 48.12442017 C-8.34858566 48.12082489 -9.40162384 48.11722961 -10.48657227 48.11352539 C-11.58887177 48.11367142 -12.69117126 48.11381744 -13.82687378 48.1139679 C-17.49007092 48.11326821 -21.15321794 48.10547324 -24.81640625 48.09765625 C-27.34846468 48.09579227 -29.88052348 48.09436827 -32.4125824 48.09336853 C-38.40848249 48.08993346 -44.40436089 48.08204269 -50.40025228 48.07201904 C-57.22481058 48.06085677 -64.04936972 48.05534717 -70.87393486 48.05032361 C-84.91596848 48.03986004 -98.95797919 48.02151501 -113 48 C-113 54.93 -113 61.86 -113 69 C-111.29840225 68.99777939 -109.5968045 68.99555878 -107.84364319 68.99327087 C-91.84750369 68.97304392 -75.85136728 68.95797005 -59.85521793 68.94818783 C-51.63044281 68.94302473 -43.40567721 68.93598177 -35.1809082 68.92456055 C-28.01479554 68.91461414 -20.84868977 68.90814668 -13.6825704 68.90591151 C-9.88583011 68.90460432 -6.08910955 68.90151802 -2.29237556 68.89426994 C1.27718902 68.8875104 4.84672563 68.8853829 8.41629601 68.88689232 C10.35914846 68.88648364 12.30199784 68.8810881 14.24484253 68.87557983 C15.96339195 68.87764183 15.96339195 68.87764183 17.71665955 68.87974548 C18.71864852 68.87882369 19.72063749 68.8779019 20.75298977 68.87695217 C23 69 23 69 24 70 C24.08737645 71.85369611 24.10698153 73.71067541 24.09765625 75.56640625 C24.09443359 76.69111328 24.09121094 77.81582031 24.08789062 78.97460938 C24.07951172 80.15861328 24.07113281 81.34261719 24.0625 82.5625 C24.05798828 83.75037109 24.05347656 84.93824219 24.04882812 86.16210938 C24.03699686 89.10809412 24.01906076 92.05405316 24 95 C30.6 95 37.2 95 44 95 C44.33 94.34 44.66 93.68 45 93 C45 93.66 45 94.32 45 95 C53.25 95 61.5 95 70 95 C70 103.25 70 111.5 70 120 C61.75 120 53.5 120 45 120 C45 112.08 45 104.16 45 96 C37.74 96 30.48 96 23 96 C23 87.75 23 79.5 23 71 C-22.21 71 -67.42 71 -114 71 C-114 62.75 -114 54.5 -114 46 C-76.38 46 -38.76 46 0 46 C0 30.82 0 15.64 0 0 Z " fill="#4B083A" transform="translate(383,584)"/>
<path d="M0 0 C29.04 0 58.08 0 88 0 C88 28.74228395 88 28.74228395 87.5 39.0625 C87.335 42.671875 87.17 46.28125 87 50 C79.74 50 72.48 50 65 50 C65 42.08 65 34.16 65 26 C64.34 26 63.68 26 63 26 C63 17.75 63 9.5 63 1 C42.21 1 21.42 1 0 1 C0 0.67 0 0.34 0 0 Z " fill="#6F0E4D" transform="translate(318,145)"/>
<path d="M0 0 C7.92 0 15.84 0 24 0 C24 16.5 24 33 24 50 C16.08 50 8.16 50 0 50 C0 33.5 0 17 0 0 Z " fill="#F42F9F" transform="translate(763,388)"/>
<path d="M0 0 C7.59 0 15.18 0 23 0 C23 8.58 23 17.16 23 26 C16.07 26 9.14 26 2 26 C2.33 33.92 2.66 41.84 3 50 C-5.58 50 -14.16 50 -23 50 C-23 41.80310295 -22.69810445 34.11546428 -22 26 C-14.41 26 -6.82 26 1 26 C0.835 24.30875 0.67 22.6175 0.5 20.875 C-0.090891 13.90082168 -0.06996606 6.99660602 0 0 Z " fill="#620E4A" transform="translate(471,461)"/>
<path d="M0 0 C7.59 0 15.18 0 23 0 C23 16.17 23 32.34 23 49 C15.41 49 7.82 49 0 49 C0 32.83 0 16.66 0 0 Z " fill="#6B0E54" transform="translate(270,389)"/>
<path d="M0 0 C8.25 0 16.5 0 25 0 C25 14.85 25 29.7 25 45 C16.75 45 8.5 45 0 45 C0 30.15 0 15.3 0 0 Z " fill="#740D56" transform="translate(218,224)"/>
<path d="M0 0 C15.51 0 31.02 0 47 0 C47 7.92 47 15.84 47 24 C31.27774152 24.09303112 15.70244497 23.78512225 0 23 C0 15.41 0 7.82 0 0 Z " fill="#541047" transform="translate(222,656)"/>
<path d="M0 0 C14.19 0 28.38 0 43 0 C42.67 8.25 42.34 16.5 42 25 C28.14 25 14.28 25 0 25 C0 16.75 0 8.5 0 0 Z " fill="#541148" transform="translate(453,705)"/>
<path d="M0 0 C7.59 0 15.18 0 23 0 C23 14.52 23 29.04 23 44 C15.74 44 8.48 44 1 44 C-0.125 35 -0.125 35 -0.11352539 31.78710938 C-0.11344986 31.06696655 -0.11337433 30.34682373 -0.11329651 29.6048584 C-0.10813522 28.85869263 -0.10297394 28.11252686 -0.09765625 27.34375 C-0.0962413 26.55601196 -0.09482635 25.76827393 -0.09336853 24.95666504 C-0.08782612 22.47106936 -0.07528485 19.98556789 -0.0625 17.5 C-0.05747754 15.80208465 -0.05291595 14.10416786 -0.04882812 12.40625 C-0.03873174 8.27076892 -0.01914578 4.13548839 0 0 Z " fill="#810E5B" transform="translate(788,224)"/>
<path d="M0 0 C3.279375 -0.020625 6.55875 -0.04125 9.9375 -0.0625 C10.97253662 -0.071604 12.00757324 -0.08070801 13.07397461 -0.09008789 C14.28839233 -0.09383423 14.28839233 -0.09383423 15.52734375 -0.09765625 C16.77632446 -0.10551147 16.77632446 -0.10551147 18.05053711 -0.11352539 C20 0 20 0 21 1 C22.63472882 1.08700342 24.27314055 1.10701063 25.91015625 1.09765625 C26.89951172 1.09443359 27.88886719 1.09121094 28.90820312 1.08789062 C29.94912109 1.07951172 30.99003906 1.07113281 32.0625 1.0625 C33.10728516 1.05798828 34.15207031 1.05347656 35.22851562 1.04882812 C37.81903454 1.03699927 40.40952422 1.01906319 43 1 C43 7.93 43 14.86 43 22 C28.81 22 14.62 22 0 22 C0 14.74 0 7.48 0 0 Z " fill="#6E0F50" transform="translate(693,489)"/>
<path d="M0 0 C12.87 0.495 12.87 0.495 26 1 C26 9.25 26 17.5 26 26 C17.75 26 9.5 26 1 26 C1 41.51 1 57.02 1 73 C0.67 73 0.34 73 0 73 C0 57.82 0 42.64 0 27 C-7.26 27 -14.52 27 -22 27 C-22 53.4 -22 79.8 -22 107 C-22.33 107 -22.66 107 -23 107 C-23 80.27 -23 53.54 -23 26 C-15.41 26 -7.82 26 0 26 C0 17.42 0 8.84 0 0 Z " fill="#650D48" transform="translate(195,679)"/>
<path d="M0 0 C7.59 0 15.18 0 23 0 C23 7.26 23 14.52 23 22 C30.59 22 38.18 22 46 22 C46 29.92 46 37.84 46 46 C38.41 46 30.82 46 23 46 C23 53.92 23 61.84 23 70 C15.74 70 8.48 70 1 70 C1 61.75 1 53.5 1 45 C15.52 45 30.04 45 45 45 C45 38.07 45 31.14 45 24 C37.74 24 30.48 24 23 24 C23 30.6 23 37.2 23 44 C22.67 44 22.34 44 22 44 C22 37.07 22 30.14 22 23 C15.4 23 8.8 23 2 23 C2 22.67 2 22.34 2 22 C8.6 22 15.2 22 22 22 C22 15.07 22 8.14 22 1 C15.4 1 8.8 1 2 1 C2 6.61 2 12.22 2 18 C1.67 18 1.34 18 1 18 C0.67 12.06 0.34 6.12 0 0 Z " fill="#501146" transform="translate(691,466)"/>
<path d="M0 0 C57.75 0 115.5 0 175 0 C175 0.33 175 0.66 175 1 C117.58 1 60.16 1 1 1 C1 9.25 1 17.5 1 26 C-6.92 26 -14.84 26 -23 26 C-22.67 18.08 -22.34 10.16 -22 2 C-14.74 2 -7.48 2 0 2 C0 1.34 0 0.68 0 0 Z " fill="#621150" transform="translate(429,144)"/>
<path d="M0 0 C0.33 0 0.66 0 1 0 C1 6.93 1 13.86 1 21 C8.26 21 15.52 21 23 21 C23.020625 23.660625 23.04125 26.32125 23.0625 29.0625 C23.071604 29.8862915 23.08070801 30.71008301 23.09008789 31.55883789 C23.09258545 32.23164795 23.09508301 32.90445801 23.09765625 33.59765625 C23.10289307 34.27320557 23.10812988 34.94875488 23.11352539 35.64477539 C22.96232791 38.781554 22.44412252 41.89114235 22 45 C15.07 45 8.14 45 1 45 C1 52.59 1 60.18 1 68 C-7.25 68 -15.5 68 -24 68 C-24.04125 65.07125 -24.0825 62.1425 -24.125 59.125 C-24.14320801 58.20348145 -24.16141602 57.28196289 -24.18017578 56.33251953 C-24.1851709 55.60661621 -24.19016602 54.88071289 -24.1953125 54.1328125 C-24.20578613 53.38918457 -24.21625977 52.64555664 -24.22705078 51.87939453 C-24 50 -24 50 -22 48 C-22.33 54.27 -22.66 60.54 -23 67 C-15.41 67 -7.82 67 0 67 C-0.495 57.1 -0.495 57.1 -1 47 C-3.92875 47.144375 -6.8575 47.28875 -9.875 47.4375 C-11.25727783 47.50215454 -11.25727783 47.50215454 -12.66748047 47.56811523 C-13.39338379 47.60622314 -14.11928711 47.64433105 -14.8671875 47.68359375 C-15.98262939 47.73858032 -15.98262939 47.73858032 -17.12060547 47.79467773 C-19.08864312 47.89955865 -19.08864312 47.89955865 -21 49 C-21 47.68 -21 46.36 -21 45 C-14.07 45 -7.14 45 0 45 C0 37.41 0 29.82 0 22 C-6.6 22 -13.2 22 -20 22 C-20 21.67 -20 21.34 -20 21 C-13.73 21 -7.46 21 -1 21 C-0.67 14.07 -0.34 7.14 0 0 Z " fill="#561047" transform="translate(316,444)"/>
<path d="M0 0 C0.83523193 0.00249756 1.67046387 0.00499512 2.53100586 0.00756836 C3.56362549 0.01667236 4.59624512 0.02577637 5.66015625 0.03515625 C8.98078125 0.05578125 12.30140625 0.07640625 15.72265625 0.09765625 C15.72265625 8.34765625 15.72265625 16.59765625 15.72265625 25.09765625 C6.48265625 25.09765625 -2.75734375 25.09765625 -12.27734375 25.09765625 C-12.27734375 17.17765625 -12.27734375 9.25765625 -12.27734375 1.09765625 C-7.8963945 0.47180636 -4.29942004 -0.02670447 0 0 Z " fill="#640F4D" transform="translate(483.27734375,316.90234375)"/>
<path d="M0 0 C2.64 -0.020625 5.28 -0.04125 8 -0.0625 C9.22203125 -0.07615601 9.22203125 -0.07615601 10.46875 -0.09008789 C11.1390625 -0.09258545 11.809375 -0.09508301 12.5 -0.09765625 C13.1703125 -0.10289307 13.840625 -0.10812988 14.53125 -0.11352539 C18.03681363 0.04767784 21.51783087 0.56472886 25 1 C25 9.25 25 17.5 25 26 C32.26 26 39.52 26 47 26 C47 26.33 47 26.66 47 27 C31.49 27 15.98 27 0 27 C0 18.09 0 9.18 0 0 Z " fill="#5D0E49" transform="translate(713,439)"/>
<path d="M0 0 C8.25 0 16.5 0 25 0 C25 8.58 25 17.16 25 26 C16.75 26 8.5 26 0 26 C0 17.42 0 8.84 0 0 Z " fill="#680D4E" transform="translate(244,196)"/>
<path d="M0 0 C0.16638019 1.7469861 0.33059054 3.49417893 0.49389648 5.24145508 C0.58557602 6.21440018 0.67725555 7.18734528 0.77171326 8.18977356 C1.22719846 13.79682964 1.05569201 19.37510691 1 25 C-6.92 25 -14.84 25 -23 25 C-23 17.41 -23 9.82 -23 2 C-40.16 2 -57.32 2 -75 2 C-75 1.67 -75 1.34 -75 1 C-68.01560919 0.85425877 -61.03114774 0.71232082 -54.04663086 0.57275391 C-51.68170513 0.52508105 -49.31679537 0.47660783 -46.9519043 0.42724609 C-31.29895014 0.10121219 -15.65641433 -0.07412468 0 0 Z " fill="#6C0E55" transform="translate(761,245)"/>
<path d="M0 0 C8.25 0 16.5 0 25 0 C24.67 8.25 24.34 16.5 24 25 C16.74 25 9.48 25 2 25 C2 26.65 2 28.3 2 30 C1.67 30 1.34 30 1 30 C0.1367399 26.28111134 -0.11721556 22.85703512 -0.09765625 19.04296875 C-0.09515869 18.04031982 -0.09266113 17.0376709 -0.09008789 16.00463867 C-0.08098389 14.74498291 -0.07187988 13.48532715 -0.0625 12.1875 C-0.041875 8.165625 -0.02125 4.14375 0 0 Z " fill="#670E4C" transform="translate(381,680)"/>
<path d="M0 0 C8.25 0 16.5 0 25 0 C25.33 7.92 25.66 15.84 26 24 C17.42 24 8.84 24 0 24 C0 16.08 0 8.16 0 0 Z " fill="#630F4C" transform="translate(716,753)"/>
<path d="M0 0 C8.25 0 16.5 0 25 0 C25 7.92 25 15.84 25 24 C16.75 24 8.5 24 0 24 C0 16.08 0 8.16 0 0 Z " fill="#680F4E" transform="translate(536,316)"/>
<path d="M0 0 C7.92 0 15.84 0 24 0 C24 8.25 24 16.5 24 25 C16.08 25 8.16 25 0 25 C0 16.75 0 8.5 0 0 Z " fill="#F1128C" transform="translate(382,145)"/>
<path d="M0 0 C0.91644287 0.00523682 1.83288574 0.01047363 2.77709961 0.01586914 C3.76645508 0.0190918 4.75581055 0.02231445 5.77514648 0.02563477 C6.81606445 0.03401367 7.85698242 0.04239258 8.92944336 0.05102539 C10.49662109 0.05779297 10.49662109 0.05779297 12.09545898 0.06469727 C14.68600996 0.07652627 17.27644895 0.0930085 19.86694336 0.11352539 C19.89581087 4.25934426 19.91369663 8.40513755 19.92944336 12.55102539 C19.93782227 13.7350293 19.94620117 14.9190332 19.95483398 16.13891602 C19.95966797 17.82597656 19.95966797 17.82597656 19.96459961 19.54711914 C19.97245483 21.11030884 19.97245483 21.11030884 19.98046875 22.70507812 C19.86694336 25.11352539 19.86694336 25.11352539 18.86694336 26.11352539 C17.23221454 26.20052881 15.59380281 26.22053602 13.95678711 26.21118164 C12.96743164 26.20795898 11.97807617 26.20473633 10.95874023 26.20141602 C9.91782227 26.19303711 8.8769043 26.1846582 7.80444336 26.17602539 C6.7596582 26.17151367 5.71487305 26.16700195 4.63842773 26.16235352 C2.04787676 26.15052452 -0.54256223 26.13404228 -3.13305664 26.11352539 C-3.16192415 21.96770652 -3.17980992 17.82191323 -3.19555664 13.67602539 C-3.20393555 12.49202148 -3.21231445 11.30801758 -3.22094727 10.08813477 C-3.22416992 8.96342773 -3.22739258 7.8387207 -3.23071289 6.67993164 C-3.23594971 5.63780518 -3.24118652 4.59567871 -3.24658203 3.52197266 C-3.10193566 0.45329204 -3.05792428 0.16274863 0 0 Z " fill="#ED2D99" transform="translate(741.133056640625,438.886474609375)"/>
<path d="M0 0 C9.57 0 19.14 0 29 0 C29.65940857 8.57231147 30.10239488 16.50122513 30 25 C37.26 25 44.52 25 52 25 C52 25.33 52 25.66 52 26 C44.74 26 37.48 26 30 26 C30 31.28 30 36.56 30 42 C29.67 42 29.34 42 29 42 C29 36.39 29 30.78 29 25 C22.07 25 15.14 25 8 25 C8 17.08 8 9.16 8 1 C5.36 1 2.72 1 0 1 C0 0.67 0 0.34 0 0 Z " fill="#ED3399" transform="translate(662,511)"/>
<path d="M0 0 C7.59 0 15.18 0 23 0 C23 8.25 23 16.5 23 25 C15.41 25 7.82 25 0 25 C0 16.75 0 8.5 0 0 Z " fill="#580F49" transform="translate(604,145)"/>
<path d="M0 0 C6.93 0 13.86 0 21 0 C21.33 8.91 21.66 17.82 22 27 C14.74 27 7.48 27 0 27 C0 18.09 0 9.18 0 0 Z " fill="#F22E9D" transform="translate(271,440)"/>
<path d="M0 0 C7.26 0.33 14.52 0.66 22 1 C22 9.58 22 18.16 22 27 C14.74 26.67 7.48 26.34 0 26 C0 17.42 0 8.84 0 0 Z " fill="#670E50" transform="translate(628,170)"/>
<path d="M0 0 C7.59 0 15.18 0 23 0 C23 7.92 23 15.84 23 24 C15.41 24 7.82 24 0 24 C0 16.08 0 8.16 0 0 Z " fill="#640E4B" transform="translate(561,487)"/>
<path d="M0 0 C7.92 0 15.84 0 24 0 C23.67 0.66 23.34 1.32 23 2 C22.91573906 3.6674606 22.89274857 5.33825187 22.90234375 7.0078125 C22.90484131 7.8961377 22.90733887 8.78446289 22.90991211 9.69970703 C22.91901611 10.83005371 22.92812012 11.96040039 22.9375 13.125 C22.958125 16.71375 22.97875 20.3025 23 24 C15.41 24 7.82 24 0 24 C0 16.08 0 8.16 0 0 Z " fill="#6E0F4E" transform="translate(429,679)"/>
<path d="M0 0 C7.59 0 15.18 0 23 0 C23 7.92 23 15.84 23 24 C11.615 23.505 11.615 23.505 0 23 C0 15.41 0 7.82 0 0 Z " fill="#E72F8A" transform="translate(583,632)"/>
<path d="M0 0 C6.93 0 13.86 0 21 0 C21 7.59 21 15.18 21 23 C14.4 23 7.8 23 1 23 C1 30.92 1 38.84 1 47 C0.67 47 0.34 47 0 47 C0 31.49 0 15.98 0 0 Z " fill="#EB2F96" transform="translate(317,489)"/>
<path d="M0 0 C7.59 0 15.18 0 23 0 C23 7.26 23 14.52 23 22 C15.41 22 7.82 22 0 22 C0 14.74 0 7.48 0 0 Z " fill="#EE2B96" transform="translate(714,466)"/>
<path d="M0 0 C7.26 0 14.52 0 22 0 C22 7.92 22 15.84 22 24 C15.4 24 8.8 24 2 24 C2 20.37 2 16.74 2 13 C1.34 13 0.68 13 0 13 C0 8.71 0 4.42 0 0 Z " fill="#6E0F4F" transform="translate(471,462)"/>
<path d="M0 0 C7.26 0 14.52 0 22 0 C21.67 7.59 21.34 15.18 21 23 C14.07 23 7.14 23 0 23 C0 15.41 0 7.82 0 0 Z " fill="#F12C98" transform="translate(340,512)"/>
<path d="M0 0 C6.93 0 13.86 0 21 0 C21 7.26 21 14.52 21 22 C14.07 22 7.14 22 0 22 C0 14.74 0 7.48 0 0 Z " fill="#F22E9B" transform="translate(295,467)"/>
<path d="M0 0 C0.33 0 0.66 0 1 0 C1 7.92 1 15.84 1 24 C-5.93 24 -12.86 24 -20 24 C-20 16.41 -20 8.82 -20 1 C-10.5625 1.0625 -10.5625 1.0625 -7.58422852 1.09008789 C-6.81522217 1.09258545 -6.04621582 1.09508301 -5.25390625 1.09765625 C-4.46314697 1.10289307 -3.6723877 1.10812988 -2.85766602 1.11352539 C-0.98407311 1.20495909 -0.98407311 1.20495909 0 0 Z " fill="#460D3D" transform="translate(690,536)"/>
<path d="M0 0 C0.33 0.66 0.66 1.32 1 2 C7.27 2 13.54 2 20 2 C20.20625 4.51625 20.4125 7.0325 20.625 9.625 C20.73062256 10.79603271 20.73062256 10.79603271 20.83837891 11.99072266 C20.90677979 12.94277588 20.90677979 12.94277588 20.9765625 13.9140625 C21.02893066 14.5529541 21.08129883 15.1918457 21.13525391 15.85009766 C21 18 21 18 19 24 C12.73 24 6.46 24 0 24 C0 16.08 0 8.16 0 0 Z " fill="#4E1043" transform="translate(318,512)"/>
<path d="M0 0 C6.6 0 13.2 0 20 0 C20 7.26 20 14.52 20 22 C13.4 22 6.8 22 0 22 C0 14.74 0 7.48 0 0 Z " fill="#EB2A91" transform="translate(693,489)"/>
<path d="M0 0 C6.27 0 12.54 0 19 0 C19 6.6 19 13.2 19 20 C12.73 20 6.46 20 0 20 C0 13.4 0 6.8 0 0 Z " fill="#630F4C" transform="translate(672,490)"/>
<path d="M0 0 C0.33 0 0.66 0 1 0 C1.84344104 20.58642429 2.13447069 41.12643236 2.06866455 61.72790527 C2.05814966 65.3902118 2.05380884 69.05252626 2.04882812 72.71484375 C2.03832917 79.80991378 2.02143063 86.9049538 2 94 C3.26706787 93.99476318 4.53413574 93.98952637 5.83959961 93.98413086 C10.5228607 93.96608486 15.20611871 93.95456947 19.8894043 93.94506836 C21.91968298 93.94002722 23.94995802 93.93319443 25.98022461 93.92456055 C28.89177347 93.91248533 31.8032745 93.90676966 34.71484375 93.90234375 C35.6283812 93.89718246 36.54191864 93.89202118 37.48313904 93.88670349 C39.65575427 93.88650832 41.82827296 93.93788195 44 94 C45 95 45 95 45.11352539 97.22485352 C45.10828857 98.18319092 45.10305176 99.14152832 45.09765625 100.12890625 C45.09515869 101.06033447 45.09266113 101.9917627 45.09008789 102.95141602 C45.08098389 104.14307373 45.07187988 105.33473145 45.0625 106.5625 C45.041875 110.336875 45.02125 114.11125 45 118 C57.54 118 70.08 118 83 118 C83 118.33 83 118.66 83 119 C70.13 119 57.26 119 44 119 C44 111.41 44 103.82 44 96 C29.48 96 14.96 96 0 96 C0 64.32 0 32.64 0 0 Z " fill="#F43190" transform="translate(429,440)"/>
<path d="M0 0 C5.94 0 11.88 0 18 0 C18 7.59 18 15.18 18 23 C25.26 23 32.52 23 40 23 C40 31.58 40 40.16 40 49 C47.92 49 55.84 49 64 49 C64 56.26 64 63.52 64 71 C41.56 71 19.12 71 -4 71 C-4 70.34 -4 69.68 -4 69 C17.78 69 39.56 69 62 69 C62 62.73 62 56.46 62 50 C57.545 50.495 57.545 50.495 53 51 C50.85536594 51.08295513 48.70873057 51.13058187 46.5625 51.125 C45.55316406 51.12757813 44.54382813 51.13015625 43.50390625 51.1328125 C41 51 41 51 39 50 C39 41.42 39 32.84 39 24 C31.74 24 24.48 24 17 24 C17 16.41 17 8.82 17 1 C11.39 1 5.78 1 0 1 C0 0.67 0 0.34 0 0 Z " fill="#420D40" transform="translate(433,221)"/>
<path d="M0 0 C7.59 0 15.18 0 23 0 C23 7.26 23 14.52 23 22 C25.97 21.9690625 25.97 21.9690625 29 21.9375 C34.20419947 21.88328959 38.74120999 22.34265125 44 23 C44 55.34 44 87.68 44 121 C37.07 120.67 30.14 120.34 23 120 C23 119.67 23 119.34 23 119 C29.27 119 35.54 119 42 119 C42 87.65 42 56.3 42 24 C36.06 24 30.12 24 24 24 C23.34 23.67 22.68 23.34 22 23 C22 15.74 22 8.48 22 1 C14.74 1 7.48 1 0 1 C0 0.67 0 0.34 0 0 Z " fill="#52073A" transform="translate(813,706)"/>
<path d="M0 0 C7.59 0 15.18 0 23 0 C23 7.26 23 14.52 23 22 C30.59 22 38.18 22 46 22 C46 29.92 46 37.84 46 46 C38.41 46 30.82 46 23 46 C23 53.92 23 61.84 23 70 C15.74 70 8.48 70 1 70 C1 61.75 1 53.5 1 45 C15.52 45 30.04 45 45 45 C45 38.07 45 31.14 45 24 C37.74 24 30.48 24 23 24 C23 30.6 23 37.2 23 44 C22.67 44 22.34 44 22 44 C22 37.07 22 30.14 22 23 C15.4 23 8.8 23 2 23 C2 22.67 2 22.34 2 22 C8.6 22 15.2 22 22 22 C22 15.07 22 8.14 22 1 C15.4 1 8.8 1 2 1 C2 6.61 2 12.22 2 18 C1.67 18 1.34 18 1 18 C0.67 12.06 0.34 6.12 0 0 Z M2 46 C2 53.59 2 61.18 2 69 C8.6 69 15.2 69 22 69 C22 61.41 22 53.82 22 46 C15.4 46 8.8 46 2 46 Z " fill="#35082D" transform="translate(691,466)"/>
<path d="M0 0 C7.26 0 14.52 0 22 0 C22 8.25 22 16.5 22 25 C37.51 25 53.02 25 69 25 C69 25.33 69 25.66 69 26 C62.18238106 26.0252689 55.36477411 26.04283244 48.54711914 26.05493164 C46.22582549 26.05997333 43.90453503 26.06680651 41.58325195 26.07543945 C38.25471205 26.08751225 34.92621398 26.09322979 31.59765625 26.09765625 C30.03048607 26.10539818 30.03048607 26.10539818 28.43165588 26.11329651 C27.47073532 26.11337204 26.50981476 26.11344757 25.51977539 26.11352539 C24.66928116 26.115746 23.81878693 26.11796661 22.94252014 26.12025452 C21 26 21 26 20 25 C19.91286169 23.29227642 19.89299993 21.58101351 19.90234375 19.87109375 C19.90556641 18.83662109 19.90878906 17.80214844 19.91210938 16.73632812 C19.92048828 15.64771484 19.92886719 14.55910156 19.9375 13.4375 C19.94201172 12.34501953 19.94652344 11.25253906 19.95117188 10.12695312 C19.9630016 7.41794568 19.98093769 4.7089662 20 2 C13.73 2 7.46 2 1 2 C1.00523682 3.98362549 1.01047363 5.96725098 1.01586914 8.01098633 C1.03198649 14.56084024 1.04348129 21.11068947 1.05181217 27.66055775 C1.0570334 31.63219624 1.0641173 35.6038133 1.07543945 39.57543945 C1.08629527 43.40741372 1.09228257 47.23936736 1.09487724 51.07135582 C1.09672662 52.53420016 1.10033792 53.99704335 1.10573006 55.45987892 C1.11297622 57.50688757 1.11398943 59.55381069 1.11352539 61.60083008 C1.115746 62.76665115 1.11796661 63.93247223 1.12025452 65.13362122 C1 68 1 68 0 71 C7.59 71.33 15.18 71.66 23 72 C23 72.33 23 72.66 23 73 C15.08 73 7.16 73 -1 73 C-1.11673048 48.64223978 -0.87778124 24.34275466 0 0 Z " fill="#F03191" transform="translate(406,365)"/>
<path d="M0 0 C1.2265323 16.99623332 1.09454406 33.97156412 1 51 C8.92 51 16.84 51 25 51 C25 51.33 25 51.66 25 52 C17.29928525 52.75260039 9.73773151 53.10181226 2 53 C2 59.93 2 66.86 2 74 C1.67 74 1.34 74 1 74 C1 67.07 1 60.14 1 53 C-7.25 53 -15.5 53 -24 53 C-24 36.5 -24 20 -24 3 C-23.67 3 -23.34 3 -23 3 C-23 18.84 -23 34.68 -23 51 C-16.4 51 -9.8 51 -3 51 C-2.01 51.33 -1.02 51.66 0 52 C-0.03029297 51.20118408 -0.06058594 50.40236816 -0.09179688 49.5793457 C-0.69600582 33.38073638 -1.16105484 17.21285354 -1 1 C-2.23097412 1.1071936 -2.23097412 1.1071936 -3.48681641 1.21655273 C-12.80787341 1.9632024 -22.03082418 2.12079112 -31.375 2.0625 C-32.8046859 2.05746589 -34.23437355 2.05290643 -35.6640625 2.04882812 C-39.10941245 2.03799465 -42.55469427 2.02083984 -46 2 C-46 1.67 -46 1.34 -46 1 C-30.66244661 0.38374438 -15.35137611 -0.18275448 0 0 Z " fill="#410635" transform="translate(243,388)"/>
<path d="M0 0 C8.25 0 16.5 0 25 0 C25 16.5 25 33 25 50 C32.92 50 40.84 50 49 50 C49 50.66 49 51.32 49 52 C41.08 52 33.16 52 25 52 C25 60.58 25 69.16 25 78 C24.67 78 24.34 78 24 78 C24 69.09 24 60.18 24 51 C16.08 51 8.16 51 0 51 C0 34.17 0 17.34 0 0 Z M1 1 C1 17.17 1 33.34 1 50 C8.59 50 16.18 50 24 50 C24 33.83 24 17.66 24 1 C16.41 1 8.82 1 1 1 Z " fill="#4E0A44" transform="translate(269,388)"/>
<path d="M0 0 C0.33 0 0.66 0 1 0 C1 8.25 1 16.5 1 25 C-8.76490031 25.13260148 -18.52982116 25.26335039 -28.2947855 25.39115143 C-32.83285072 25.4506118 -37.370904 25.51077317 -41.90893555 25.57275391 C-64.27439351 25.8776455 -86.63228104 26.07384455 -109 26 C-109 33.59 -109 41.18 -109 49 C-109.66 49 -110.32 49 -111 49 C-111.02886984 45.02084841 -111.04675406 41.04172347 -111.0625 37.0625 C-111.07087891 35.92619141 -111.07925781 34.78988281 -111.08789062 33.61914062 C-111.09111328 32.53955078 -111.09433594 31.45996094 -111.09765625 30.34765625 C-111.10289307 29.34742432 -111.10812988 28.34719238 -111.11352539 27.31665039 C-111 25 -111 25 -110 24 C-108.57053529 23.90445601 -107.13637335 23.87811562 -105.70372009 23.87974548 C-104.77678848 23.87837082 -103.84985687 23.87699615 -102.89483643 23.87557983 C-101.35735748 23.88097275 -101.35735748 23.88097275 -99.78881836 23.88647461 C-98.17926018 23.88625557 -98.17926018 23.88625557 -96.53718567 23.8860321 C-92.97138484 23.88673176 -89.40563551 23.89452662 -85.83984375 23.90234375 C-83.37504607 23.90420774 -80.91024801 23.90563173 -78.44544983 23.90663147 C-71.94346095 23.91045813 -65.44149425 23.92028968 -58.93951416 23.93133545 C-52.31059183 23.94208252 -45.68166307 23.94612841 -39.05273438 23.95117188 C-26.03514492 23.96191181 -13.01757777 23.97950981 0 24 C0 16.08 0 8.16 0 0 Z " fill="#DD2987" transform="translate(694,802)"/>
<path d="M0 0 C20.46 0 40.92 0 62 0 C62 0.33 62 0.66 62 1 C42.03845018 3.00690627 22.00120209 1.80176615 2 1 C2 8.26 2 15.52 2 23 C8.49211076 22.92092297 8.49211076 22.92092297 14.98388672 22.81982422 C15.79100098 22.8148291 16.59811523 22.80983398 17.4296875 22.8046875 C18.25710449 22.79421387 19.08452148 22.78374023 19.93701172 22.77294922 C22 23 22 23 24 25 C-0.09 25 -24.18 25 -49 25 C-49 24.67 -49 24.34 -49 24 C-32.83 24 -16.66 24 0 24 C0 16.08 0 8.16 0 0 Z " fill="#7A1A5B" transform="translate(318,146)"/>
<path d="M0 0 C16.17 0 32.34 0 49 0 C49.020625 4.269375 49.04125 8.53875 49.0625 12.9375 C49.071604 14.28577881 49.08070801 15.63405762 49.09008789 17.02319336 C49.09258545 18.07643799 49.09508301 19.12968262 49.09765625 20.21484375 C49.10289307 21.29886475 49.10812988 22.38288574 49.11352539 23.49975586 C49 26 49 26 48 27 C45.70848583 27.08790975 43.41427476 27.10694038 41.12109375 27.09765625 C40.09110008 27.09553383 40.09110008 27.09553383 39.04029846 27.09336853 C36.83932199 27.08775479 34.63844591 27.07520007 32.4375 27.0625 C30.94856917 27.05748676 29.45963676 27.05292355 27.97070312 27.04882812 C24.31376925 27.03778093 20.65689442 27.02050713 17 27 C17 26.67 17 26.34 17 26 C26.57 26 36.14 26 46 26 C46 18.41 46 10.82 46 3 C36.76 3 27.52 3 18 3 C18 2.67 18 2.34 18 2 C12.06 1.67 6.12 1.34 0 1 C0 0.67 0 0.34 0 0 Z " fill="#8D2068" transform="translate(714,170)"/>
<path d="M0 0 C0 15.84 0 31.68 0 48 C-7.92 48 -15.84 48 -24 48 C-24.33 48.99 -24.66 49.98 -25 51 C-25.02526838 44.03996553 -25.04283222 37.0799428 -25.05493164 30.11987305 C-25.05997341 27.75007688 -25.06680665 25.38028385 -25.07543945 23.01049805 C-25.0875119 19.61245961 -25.09322971 16.21446215 -25.09765625 12.81640625 C-25.10281754 11.74975235 -25.10797882 10.68309845 -25.11329651 9.5841217 C-25.11337204 8.60318039 -25.11344757 7.62223907 -25.11352539 6.61157227 C-25.115746 5.74331314 -25.11796661 4.87505402 -25.12025452 3.98048401 C-25 2 -25 2 -24 1 C-22.30611221 0.8425553 -20.60617933 0.74905311 -18.90625 0.68359375 C-17.87628906 0.64169922 -16.84632813 0.59980469 -15.78515625 0.55664062 C-14.70105469 0.51732422 -13.61695313 0.47800781 -12.5 0.4375 C-11.41589844 0.39431641 -10.33179688 0.35113281 -9.21484375 0.30664062 C-1.43687996 0 -1.43687996 0 0 0 Z M-24 2 C-24.023058 6.98052778 -24.04294074 11.96086746 -24.05493164 16.94140625 C-24.05993487 18.63281891 -24.06673952 20.32422731 -24.07543945 22.015625 C-24.08768185 24.45834411 -24.09326855 26.90100562 -24.09765625 29.34375 C-24.10281754 30.08991577 -24.10797882 30.83608154 -24.11329651 31.6048584 C-24.11337204 32.32500122 -24.11344757 33.04514404 -24.11352539 33.78710938 C-24.115746 34.40888062 -24.11796661 35.03065186 -24.12025452 35.67126465 C-23.94165989 39.1297595 -23.42954507 42.56363947 -23 46 C-15.74 46 -8.48 46 -1 46 C-1 31.48 -1 16.96 -1 2 C-8.59 2 -16.18 2 -24 2 Z " fill="#6A0640" transform="translate(812,222)"/>
<path d="M0 0 C1.97558594 0.88012695 1.97558594 0.88012695 4 3 C4.59666822 6.29781926 4.46347292 9.57654146 4.390625 12.91796875 C4.38496521 13.89034988 4.37930542 14.86273102 4.37347412 15.86457825 C4.35106929 18.972718 4.30086481 22.07970824 4.25 25.1875 C4.22994033 27.29360315 4.21168864 29.39972436 4.1953125 31.50585938 C4.15119093 36.67101636 4.0821346 41.83531324 4 47 C8.95 47 13.9 47 19 47 C19 47.33 19 47.66 19 48 C13.39 48 7.78 48 2 48 C1.67 41.07 1.34 34.14 1 27 C0.67 29.97 0.34 32.94 0 36 C-0.33 36 -0.66 36 -1 36 C-1.02468447 31.19450253 -1.04285255 26.38904182 -1.05493164 21.58349609 C-1.05996621 19.94807289 -1.06679427 18.3126542 -1.07543945 16.67724609 C-1.08754335 14.32909025 -1.093237 11.98099381 -1.09765625 9.6328125 C-1.10281754 8.89942657 -1.10797882 8.16604065 -1.11329651 7.41043091 C-1.11387171 2.22774341 -1.11387171 2.22774341 0 0 Z " fill="#510D41" transform="translate(492,413)"/>
<path d="M0 0 C7.59 0 15.18 0 23 0 C22.67 20.79 22.34 41.58 22 63 C21.67 63 21.34 63 21 63 C21 42.87 21 22.74 21 2 C14.4 2 7.8 2 1 2 C1.33 10.25 1.66 18.5 2 27 C1.34 27 0.68 27 0 27 C0 18.09 0 9.18 0 0 Z " fill="#F53295" transform="translate(605,365)"/>
<path d="M0 0 C0.33 0 0.66 0 1 0 C1 9.57 1 19.14 1 29 C-5.6 29 -12.2 29 -19 29 C-19 36.59 -19 44.18 -19 52 C-22.6196875 52.061875 -22.6196875 52.061875 -26.3125 52.125 C-27.06829346 52.14320801 -27.82408691 52.16141602 -28.6027832 52.18017578 C-32.31447871 52.21099473 -33.83533664 52.10977558 -37 50 C-31.72 50 -26.44 50 -21 50 C-21.01160156 48.42347656 -21.02320313 46.84695313 -21.03515625 45.22265625 C-21.04453243 43.16927201 -21.05363282 41.1158865 -21.0625 39.0625 C-21.07087891 38.02158203 -21.07925781 36.98066406 -21.08789062 35.90820312 C-21.09111328 34.91884766 -21.09433594 33.92949219 -21.09765625 32.91015625 C-21.10289307 31.99371338 -21.10812988 31.07727051 -21.11352539 30.13305664 C-21 28 -21 28 -20 27 C-18.5112814 26.91330568 -17.018555 26.89296506 -15.52734375 26.90234375 C-14.71773193 26.90484131 -13.90812012 26.90733887 -13.07397461 26.90991211 C-12.03893799 26.91901611 -11.00390137 26.92812012 -9.9375 26.9375 C-6.658125 26.958125 -3.37875 26.97875 0 27 C0 18.09 0 9.18 0 0 Z " fill="#F0318E" transform="translate(538,702)"/>
<path d="M0 0 C0.33 0 0.66 0 1 0 C1 6.93 1 13.86 1 21 C8.26 21 15.52 21 23 21 C23.020625 23.660625 23.04125 26.32125 23.0625 29.0625 C23.071604 29.8862915 23.08070801 30.71008301 23.09008789 31.55883789 C23.09258545 32.23164795 23.09508301 32.90445801 23.09765625 33.59765625 C23.10289307 34.27320557 23.10812988 34.94875488 23.11352539 35.64477539 C22.96232791 38.781554 22.44412252 41.89114235 22 45 C15.07 45 8.14 45 1 45 C1 44.67 1 44.34 1 44 C7.6 44 14.2 44 21 44 C21.33 37.07 21.66 30.14 22 23 C18.7825 23.020625 15.565 23.04125 12.25 23.0625 C1.47273049 23.09587876 -9.24480811 22.65324376 -20 22 C-20 21.67 -20 21.34 -20 21 C-13.73 21 -7.46 21 -1 21 C-0.67 14.07 -0.34 7.14 0 0 Z " fill="#430E3E" transform="translate(316,444)"/>
<path d="M0 0 C0.33 0 0.66 0 1 0 C1 34.65 1 69.3 1 105 C6.28 105 11.56 105 17 105 C17 105.33 17 105.66 17 106 C10.78300769 107.38155385 5.74953003 107 -1 107 C-0.67 71.69 -0.34 36.38 0 0 Z " fill="#FB2DA0" transform="translate(789,282)"/>
<path d="M0 0 C0.33 0 0.66 0 1 0 C1.73231838 10.35707423 2.10634542 20.67811971 2.125 31.0625 C2.12951172 32.12726562 2.13402344 33.19203125 2.13867188 34.2890625 C2.13673828 35.27777344 2.13480469 36.26648438 2.1328125 37.28515625 C2.13168457 38.17082275 2.13055664 39.05648926 2.12939453 39.96899414 C2 42 2 42 1 43 C0.84259395 44.70563778 0.74906608 46.41727244 0.68359375 48.12890625 C0.64169922 49.16337891 0.59980469 50.19785156 0.55664062 51.26367188 C0.51732422 52.35228516 0.47800781 53.44089844 0.4375 54.5625 C0.39431641 55.65498047 0.35113281 56.74746094 0.30664062 57.87304688 C0.20017932 60.58189564 0.09816484 63.29083992 0 66 C-0.33 66 -0.66 66 -1 66 C-1.02921779 61.97918212 -1.04687188 57.95839186 -1.0625 53.9375 C-1.07087891 52.80376953 -1.07925781 51.67003906 -1.08789062 50.50195312 C-1.10429162 44.87641276 -0.88183998 39.56661485 0 34 C0.06460929 31.5215878 0.08611087 29.04164177 0.0625 26.5625 C0.0315625 23.3140625 0.0315625 23.3140625 0 20 C-6.27 20 -12.54 20 -19 20 C-19 19.34 -19 18.68 -19 18 C-12.73 18 -6.46 18 0 18 C0 12.06 0 6.12 0 0 Z " fill="#641D55" transform="translate(338,494)"/>
<path d="M0 0 C7.92 0 15.84 0 24 0 C24 7.26 24 14.52 24 22 C39.18 22 54.36 22 70 22 C70 22.33 70 22.66 70 23 C63.3247966 23.02526945 56.64960543 23.04283268 49.97436523 23.05493164 C47.70157409 23.05997325 45.4287862 23.06680637 43.15600586 23.07543945 C39.89696449 23.08751261 36.63796583 23.09322987 33.37890625 23.09765625 C32.35599991 23.10281754 31.33309357 23.10797882 30.27919006 23.11329651 C29.33829025 23.11337204 28.39739044 23.11344757 27.42797852 23.11352539 C26.59524918 23.115746 25.76251984 23.11796661 24.90455627 23.12025452 C23 23 23 23 22 22 C21.91330568 20.5112814 21.89296506 19.018555 21.90234375 17.52734375 C21.90556641 16.62822266 21.90878906 15.72910156 21.91210938 14.80273438 C21.92048828 13.85720703 21.92886719 12.91167969 21.9375 11.9375 C21.94201172 10.98810547 21.94652344 10.03871094 21.95117188 9.06054688 C21.9629989 6.70696935 21.97947975 4.35351523 22 2 C20.62328125 2.01740234 20.62328125 2.01740234 19.21875 2.03515625 C12.70996973 2.08301493 6.43129355 2.02900697 0 1 C0 0.67 0 0.34 0 0 Z " fill="#470C3F" transform="translate(427,344)"/>
<path d="M0 0 C0.66 0 1.32 0 2 0 C2 10.89 2 21.78 2 33 C-5.59 33 -13.18 33 -21 33 C-21 36.3 -21 39.6 -21 43 C-22.99512373 39.00975253 -23.28727578 37.30913667 -23 33 C-22 32 -22 32 -15 31 C-10.05 31 -5.1 31 0 31 C0 20.77 0 10.54 0 0 Z " fill="#F52C97" transform="translate(831,768)"/>
<path d="M0 0 C7.26 0 14.52 0 22 0 C22 7.59 22 15.18 22 23 C13.75 23 5.5 23 -3 23 C-3.04125 20.07125 -3.0825 17.1425 -3.125 14.125 C-3.14320801 13.20348145 -3.16141602 12.28196289 -3.18017578 11.33251953 C-3.1851709 10.60661621 -3.19016602 9.88071289 -3.1953125 9.1328125 C-3.21102295 8.01737061 -3.21102295 8.01737061 -3.22705078 6.87939453 C-3 5 -3 5 -1 3 C-1.33 9.27 -1.66 15.54 -2 22 C5.59 22 13.18 22 21 22 C20.505 12.1 20.505 12.1 20 2 C17.07125 2.144375 14.1425 2.28875 11.125 2.4375 C10.20348145 2.48060303 9.28196289 2.52370605 8.33251953 2.56811523 C7.60661621 2.60622314 6.88071289 2.64433105 6.1328125 2.68359375 C5.01737061 2.73858032 5.01737061 2.73858032 3.87939453 2.79467773 C1.91135688 2.89955865 1.91135688 2.89955865 0 4 C0 2.68 0 1.36 0 0 Z " fill="#57083A" transform="translate(295,489)"/>
<path d="M0 0 C1.06347656 0.00322266 2.12695312 0.00644531 3.22265625 0.00976562 C4.86427734 0.02233398 4.86427734 0.02233398 6.5390625 0.03515625 C7.65667969 0.03966797 8.77429688 0.04417969 9.92578125 0.04882812 C12.67193054 0.06056381 15.41796836 0.07698262 18.1640625 0.09765625 C17.8340625 0.75765625 17.5040625 1.41765625 17.1640625 2.09765625 C9.21238404 3.93399158 -2.12410582 4.66826681 -9.8359375 2.09765625 C-9.8359375 9.68765625 -9.8359375 17.27765625 -9.8359375 25.09765625 C-8.1859375 24.76765625 -6.5359375 24.43765625 -4.8359375 24.09765625 C-4.1759375 24.42765625 -3.5159375 24.75765625 -2.8359375 25.09765625 C-2.8359375 25.75765625 -2.8359375 26.41765625 -2.8359375 27.09765625 C-5.8059375 27.09765625 -8.7759375 27.09765625 -11.8359375 27.09765625 C-11.8359375 18.51765625 -11.8359375 9.93765625 -11.8359375 1.09765625 C-7.5902748 0.3900458 -4.20547571 -0.02261008 0 0 Z " fill="#F21993" transform="translate(661.8359375,169.90234375)"/>
<path d="M0 0 C0.33 0 0.66 0 1 0 C2.03682167 4.33262252 2.23107608 8.60576138 2.3515625 13.0390625 C2.37471527 13.80173431 2.39786804 14.56440613 2.42172241 15.35018921 C2.46916482 16.95540274 2.51442147 18.5606822 2.55761719 20.16601562 C2.6249717 22.62396713 2.70270054 25.08144622 2.78125 27.5390625 C2.82614742 29.10154462 2.87043916 30.66404429 2.9140625 32.2265625 C2.93796051 32.96097565 2.96185852 33.69538879 2.98648071 34.45205688 C3.0642624 37.60767137 3.00734621 39.97796137 2 43 C6.95 43 11.9 43 17 43 C17 43.33 17 43.66 17 44 C11.39 44 5.78 44 0 44 C0 29.48 0 14.96 0 0 Z " fill="#530E44" transform="translate(358,247)"/>
<path d="M0 0 C0.33 0 0.66 0 1 0 C1 6.6 1 13.2 1 20 C6.61 20 12.22 20 18 20 C18 14.06 18 8.12 18 2 C18.66 2 19.32 2 20 2 C20 8.6 20 15.2 20 22 C13.4 22 6.8 22 0 22 C0 14.74 0 7.48 0 0 Z " fill="#F72E9C" transform="translate(693,489)"/>
<path d="M0 0 C7.26 0 14.52 0 22 0 C22 8.25 22 16.5 22 25 C21.67 25 21.34 25 21 25 C20.505 13.615 20.505 13.615 20 2 C17.69 2.33 15.38 2.66 13 3 C11.33371045 3.03545297 9.66590197 3.05048188 8 3 C8 2.34 8 1.68 8 1 C5.36 1 2.72 1 0 1 C0 0.67 0 0.34 0 0 Z " fill="#E31A8A" transform="translate(360,171)"/>
<path d="M0 0 C0.66 0 1.32 0 2 0 C2 7.92 2 15.84 2 24 C-2.95 24 -7.9 24 -13 24 C-12.34 23.34 -11.68 22.68 -11 22 C-7.37 22 -3.74 22 0 22 C0 14.74 0 7.48 0 0 Z " fill="#4B0D45" transform="translate(428,146)"/>
<path d="M0 0 C2.78793308 0.16093332 5.54620308 0.67371614 8.30078125 1.1328125 C8.30078125 9.3828125 8.30078125 17.6328125 8.30078125 26.1328125 C7.97078125 26.1328125 7.64078125 26.1328125 7.30078125 26.1328125 C6.97078125 18.5428125 6.64078125 10.9528125 6.30078125 3.1328125 C2.67078125 3.1328125 -0.95921875 3.1328125 -4.69921875 3.1328125 C-5.35921875 2.4728125 -6.01921875 1.8128125 -6.69921875 1.1328125 C-4.87388654 -0.69251971 -2.42112761 0.00940244 0 0 Z " fill="#EB2394" transform="translate(705.69921875,169.8671875)"/>
<path d="M0 0 C7.92 0.33 15.84 0.66 24 1 C24 1.33 24 1.66 24 2 C16.74 2 9.48 2 2 2 C2 9.59 2 17.18 2 25 C1.67 25 1.34 25 1 25 C0.67 16.75 0.34 8.5 0 0 Z " fill="#3B0D3C" transform="translate(605,318)"/>
<path d="M0 0 C0.33 0 0.66 0 1 0 C1 8.25 1 16.5 1 25 C-0.98 24.67 -2.96 24.34 -5 24 C-3.68 23.67 -2.36 23.34 -1 23 C-1.01160156 21.75863281 -1.02320313 20.51726563 -1.03515625 19.23828125 C-1.04453868 17.59635568 -1.0536384 15.95442847 -1.0625 14.3125 C-1.07087891 13.49587891 -1.07925781 12.67925781 -1.08789062 11.83789062 C-1.10442051 7.75500916 -1.03035098 3.98348293 0 0 Z " fill="#4B0334" transform="translate(669,560)"/>
<path d="M0 0 C7.26 0 14.52 0 22 0 C22 3.3 22 6.6 22 10 C21.67 10 21.34 10 21 10 C20.67 7.36 20.34 4.72 20 2 C18.89140625 2.02320313 17.7828125 2.04640625 16.640625 2.0703125 C15.17709008 2.08907577 13.71354786 2.10727537 12.25 2.125 C11.52039063 2.14175781 10.79078125 2.15851563 10.0390625 2.17578125 C5.86478602 2.21372922 3.83029454 1.91514727 0 0 Z " fill="#DF198A" transform="translate(740,270)"/>
<path d="M0 0 C1.47906892 -0.02689216 2.95827483 -0.04634621 4.4375 -0.0625 C5.26121094 -0.07410156 6.08492187 -0.08570313 6.93359375 -0.09765625 C9 0 9 0 10 1 C10.07319621 3.69654854 10.09242537 6.36691458 10.0625 9.0625 C10.05798828 9.82111328 10.05347656 10.57972656 10.04882812 11.36132812 C10.0370068 13.24091871 10.01907078 15.12046899 10 17 C9.34 17 8.68 17 8 17 C8 12.05 8 7.1 8 2 C5.36 2 2.72 2 0 2 C0 1.34 0 0.68 0 0 Z " fill="#4E1045" transform="translate(596,536)"/>
<path d="M0 0 C0.33 0 0.66 0 1 0 C1.125 2.375 1.125 2.375 1 5 C-1 7 -1 7 -4.6953125 7.1953125 C-6.17200108 7.182009 -7.64862358 7.15814835 -9.125 7.125 C-9.87910156 7.11597656 -10.63320313 7.10695313 -11.41015625 7.09765625 C-13.27357254 7.0740687 -15.13682593 7.03819719 -17 7 C-17 6.34 -17 5.68 -17 5 C-8.585 4.505 -8.585 4.505 0 4 C0 2.68 0 1.36 0 0 Z " fill="#65214B" transform="translate(667,578)"/>
<path d="M0 0 C6.6 0 13.2 0 20 0 C19.67 0.66 19.34 1.32 19 2 C12.43753343 3.61457511 6.39753713 2.86981158 0 1 C0 0.67 0 0.34 0 0 Z " fill="#FA1F97" transform="translate(660,170)"/>
<path d="M0 0 C0.33 0 0.66 0 1 0 C1 1.98 1 3.96 1 6 C-4.28 6 -9.56 6 -15 6 C-11.57905758 3.71937172 -10.31812778 3.78074993 -6.3125 3.875 C-4.82169922 3.90207031 -4.82169922 3.90207031 -3.30078125 3.9296875 C-2.54152344 3.95289063 -1.78226563 3.97609375 -1 4 C-0.67 2.68 -0.34 1.36 0 0 Z " fill="#510E45" transform="translate(715,747)"/>
<path d="M0 0 C0.33 0 0.66 0 1 0 C1 8.91 1 17.82 1 27 C0.01 27 -0.98 27 -2 27 C-1.505 25.515 -1.505 25.515 -1 24 C-0.85110253 22.15533558 -0.7520899 20.30642725 -0.68359375 18.45703125 C-0.64169922 17.38388672 -0.59980469 16.31074219 -0.55664062 15.20507812 C-0.51732422 14.08552734 -0.47800781 12.96597656 -0.4375 11.8125 C-0.39431641 10.68134766 -0.35113281 9.55019531 -0.30664062 8.38476562 C-0.20050901 5.58996646 -0.09845615 2.79507838 0 0 Z " fill="#8D0F60" transform="translate(810,241)"/>
<path d="M0 0 C1.32 0.99 2.64 1.98 4 3 C4.171875 5.69921875 4.171875 5.69921875 3.75 8.6875 C3.62109375 9.68136719 3.4921875 10.67523438 3.359375 11.69921875 C3.24078125 12.45847656 3.1221875 13.21773438 3 14 C2.01 14 1.02 14 0 14 C0 9.38 0 4.76 0 0 Z " fill="#4E0C3F" transform="translate(492,413)"/>
<path d="M0 0 C2.31 0 4.62 0 7 0 C4 2 4 2 2 2 C1.67 3.65 1.34 5.3 1 7 C0.67 7 0.34 7 0 7 C0 4.69 0 2.38 0 0 Z " fill="#DD2B84" transform="translate(542,753)"/>
</svg>
